<?xml version="1.0" encoding="UTF-8" standalone="no"?><!DOCTYPE svg PUBLIC "-//W3C//DTD SVG 1.1//EN" "http://www.w3.org/Graphics/SVG/1.1/DTD/svg11.dtd"><svg width="100%" height="100%" viewBox="0 0 799 436" version="1.1" xmlns="http://www.w3.org/2000/svg" xmlns:xlink="http://www.w3.org/1999/xlink" xml:space="preserve" xmlns:serif="http://www.serif.com/" style="fill-rule:evenodd;clip-rule:evenodd;stroke-miterlimit:10;"><g><g><g><path d="M139.082,278.32l-125.143,-0l0,-53.488l106.045,-219.607l97.5,-0l0,219.172l37.694,-0l0,53.923l-37.694,-0l0,79.146l-78.4,0l-0.002,-79.146Zm0,-53.923l0,-146.55l-61.315,146.55l61.315,-0Z" style="fill:#2ead9e;fill-rule:nonzero;"/><path d="M291.362,263.1l0,-159.6c0,-61.751 34.678,-103.5 111.07,-103.5c75.89,-0 110.568,41.747 110.568,103.5l0,159.6c0,59.142 -38.2,100.889 -110.568,100.889c-73.378,-0 -111.07,-40.877 -111.07,-100.889Zm136.2,-1.739l0,-156.119c0,-14.351 0,-40.443 -25.129,-40.443c-25.632,-0 -25.129,26.092 -25.129,40.443l0,156.119c0,13.48 2.009,37.833 25.129,37.833c23.62,-0 25.128,-24.352 25.128,-37.833l0.001,-0Z" style="fill:#2ead9e;fill-rule:nonzero;"/><path d="M677.839,278.32l-125.139,-0l0,-53.488l106.045,-219.607l97.5,-0l0,219.172l37.694,-0l0,53.923l-37.694,-0l0,79.146l-78.406,0l0,-79.146Zm0,-53.923l0,-146.55l-61.315,146.55l61.315,-0Z" style="fill:#2ead9e;fill-rule:nonzero;"/></g><path d="M601.76,187.589c-2.2,2.221 -6.912,14.057 -8.284,19.865c-1.285,4.637 -2.957,9.159 -5,13.516c-2.042,4.357 -12.7,-4.795 -17.68,-9.337c-2.085,-1.9 -6.424,0.06 -6.424,0.06c0,0 -2.215,-1.066 -3.39,-1.722c-4.486,-2.5 -8.827,9.369 -3.872,10.718c1.416,0.617 2.741,1.424 3.937,2.4c1.197,0.976 0.512,4.748 2.895,5.812c2.383,1.064 8.387,2.063 12.277,5.131c3.89,3.068 13.067,8.288 15.979,7.544c2.912,-0.744 16.55,-25.347 16.907,-32.142c0.357,-6.795 -3.2,-26.027 -7.341,-21.845l-0.004,-0Z" style="fill:#9fdded;"/><path d="M608.42,200.708c0.006,2.7 -0.283,5.392 -0.86,8.029c-1.312,5.975 -3.725,9.87 -7.152,15.4c-4.777,7.713 -8.032,13.195 -10.342,13.2c-2.31,0.005 -6.074,-4.929 -13.313,-7.808c-2.7,-1.075 -5.255,-1.413 -9.022,-3.741c-1.711,-0.876 -3.071,-2.313 -3.851,-4.071c-0.438,-1.196 -0.552,-2.487 -0.33,-3.741c-0.68,2.05 -1.524,2.684 -2.2,2.861c-1.149,0.3 -2.023,-0.663 -4.181,-1.43c-0.639,-0.225 -1.295,-0.4 -1.962,-0.521c0.29,0.881 1.005,1.559 1.9,1.8c1.416,0.617 2.741,1.424 3.937,2.4c1.197,0.976 0.512,4.748 2.895,5.812c2.383,1.064 8.387,2.063 12.277,5.131c3.89,3.068 13.067,8.288 15.979,7.544c2.912,-0.744 16.55,-25.347 16.907,-32.142c0.044,-2.923 -0.184,-5.843 -0.682,-8.723Z" style="fill:#87ccde;fill-rule:nonzero;"/><path d="M559.573,211.515c0,-3.378 -4.883,-5.524 -6.35,-7.195c-0.87,-0.7 -2.077,-0.825 -3.072,-0.316c-1.873,1.56 -4.138,2.578 -6.549,2.944c-1.391,0.267 -0.8,2.671 2.5,2.972c1.609,0.071 3.187,-0.467 4.416,-1.507c-2.688,3.412 -7.31,5.014 -7.553,5.76c-0.243,0.746 8.01,4.539 9,4.469c0.99,-0.07 2.376,0.359 3.588,-0.866c1.847,1.373 1.7,1.155 1.7,1.155c2.156,1.136 6.2,-4.82 2.317,-7.416l0.003,-0Z" style="fill:#ffb7a6;"/><path d="M526.581,224.373c4.915,-9.132 13.607,-12.455 20.258,-11.471c3.067,0.551 5.885,2.049 8.056,4.283c14.743,14.066 4.272,63.136 16.87,100.929c6.387,17.706 15.93,34.109 28.166,48.411c52.866,61.946 163.165,44.854 176.041,42.69" style="fill:none;stroke:#000;stroke-width:4.45px;"/><path d="M520.659,223.701c0.44,-2.069 3.465,-3.183 6.752,-2.484c3.286,0.699 5.598,2.946 5.158,5.016c-0.44,2.07 -3.466,3.183 -6.753,2.484c-3.286,-0.698 -5.597,-2.946 -5.157,-5.016Z" style="fill:#b3b3b3;"/><path d="M510.985,233.374c4.079,-16.269 29.377,-10.892 26.485,5.63l-2.684,15.338l-27.586,-5.863l3.785,-15.105Z" style="fill:#4d4d4d;"/><path d="M535.866,248.17l-1.08,6.168l-27.586,-5.863l1.523,-6.074c4.816,-3.459 24.152,0.655 27.143,5.769Z" style="fill:#b3b3b3;"/><path d="M507.2,248.475c-0.2,1.568 5.715,4.109 13.2,5.7c7.485,1.591 13.924,1.677 14.381,0.163c0.466,-1.542 -5.433,-4.149 -13.184,-5.8c-7.751,-1.651 -14.195,-1.662 -14.397,-0.063Z" style="fill:#ccc;"/><path d="M525.649,253.221l0.345,-1.625c0.12,-0.561 0.672,-0.919 1.233,-0.8c0.561,0.119 0.919,0.671 0.8,1.232l-0.345,1.625c-0.119,0.561 -0.672,0.919 -1.233,0.8c-0.56,-0.119 -0.919,-0.671 -0.8,-1.232Z"/><path d="M513.97,250.74l0.345,-1.624c0.12,-0.561 0.672,-0.92 1.233,-0.801c0.561,0.12 0.919,0.672 0.8,1.233l-0.345,1.624c-0.12,0.561 -0.672,0.92 -1.233,0.801c-0.561,-0.12 -0.919,-0.672 -0.8,-1.233Z"/><path d="M540.839,216.042c-0.127,-0.818 2.15,-2.7 3.123,-2.985c0.119,-0.031 0.241,-0.046 0.364,-0.046c0.793,-0 1.447,0.653 1.447,1.447c-0,0.025 -0.001,0.051 -0.003,0.077c-0.016,0.983 -2.17,2.856 -3.021,2.97c-0.9,0.029 -1.703,-0.586 -1.91,-1.463Z" style="fill:#ffb7a6;"/><path d="M543.517,217.802c-0.135,-0.871 2.289,-2.876 3.325,-3.177c0.127,-0.033 0.257,-0.049 0.388,-0.049c0.845,-0 1.54,0.695 1.54,1.54c-0,0.027 -0.001,0.055 -0.003,0.082c-0.018,1.046 -2.311,3.04 -3.216,3.16c-0.958,0.033 -1.814,-0.622 -2.034,-1.556Z" style="fill:#ffb7a6;"/><path d="M546.896,219.075c-0.124,-0.793 2.088,-2.622 3.032,-2.9c0.117,-0.031 0.237,-0.046 0.358,-0.046c0.768,-0 1.4,0.632 1.4,1.4c-0,0.026 -0.001,0.053 -0.003,0.08c-0.016,0.954 -2.107,2.773 -2.933,2.882c-0.874,0.03 -1.654,-0.568 -1.854,-1.419l0,0.003Z" style="fill:#ffb7a6;"/><path d="M550.549,219.733c-0.11,-0.707 1.86,-2.336 2.7,-2.581c0.103,-0.027 0.208,-0.04 0.314,-0.04c0.686,-0 1.25,0.564 1.25,1.25c0,0.023 -0,0.045 -0.002,0.068c-0.013,0.849 -1.877,2.47 -2.612,2.568c-0.778,0.026 -1.474,-0.506 -1.652,-1.265l0.002,-0Z" style="fill:#ffb7a6;"/><path d="M611.149,408.442c0,-0 -2.671,3.418 -3.951,4.042c-4.11,2 -7.033,2.95 -6.922,5.16c0.076,1.549 28.266,-0.233 28.451,-1.416c0.185,-1.183 -17.578,-7.786 -17.578,-7.786Z" style="fill:#403b33;"/><path d="M605.148,271.614c-1.162,13.706 -2.628,52.654 -1.472,69.927c1.156,17.273 3.1,38.121 3.221,40.9c0.325,7.148 -0.4,11.364 -0.381,14.392c0.019,3.028 3.16,3.055 3.214,4.935c0.054,1.88 -1.277,3.831 -1.336,5c-0.059,1.169 2.393,2.8 2.393,2.8l17.506,6.938c0,-0 2.817,-0.048 2.6,-1.781c-0.308,-2.448 -0.938,-3.933 -0.912,-4.565c0.026,-0.632 2.474,-3.511 2.282,-4.729c-0.53,-3.343 -1.5,-5.861 -1.541,-7.184c-0.041,-1.323 0.334,-7.239 0.074,-9.266c-0.26,-2.027 -2.359,-13.936 -2.464,-16.3c-0.105,-2.364 -0.1,-20.57 1.026,-31.925c1.126,-11.355 4.171,-39.2 8.86,-44.161c4.689,-4.961 12.029,-4.619 13.788,-10.627c1.645,-6.068 1.147,-12.521 -1.411,-18.264c-2.372,-4.968 -44.183,-10.979 -45.447,3.907l0,0.003Z" style="fill:#9e978e;"/><path d="M630.02,384.114c-0.7,-4.274 -1.62,-9.884 -1.688,-11.43c-0.1,-2.368 -0.1,-20.57 1.026,-31.925c1.126,-11.355 4.171,-39.2 8.86,-44.161c0.309,-0.327 0.634,-0.636 0.975,-0.928c-8.143,-0.458 -16.633,-7.723 -17.951,-1.554c-1.677,7.856 2.027,24.641 2.355,38.086c0.328,13.445 0.758,17.387 0.43,23.282c-0.328,5.895 -0.029,5.331 0.621,10.692c0.65,5.361 -0.251,4.1 -0.257,7.982c-0.006,2.732 3.327,5.607 5.629,9.956Z" style="fill:#8e877f;"/><path d="M643.187,407.716c0,-0 -2.23,4.144 -3.137,4.777c-3.45,2.41 -6.4,3.444 -5.851,5.961c0.261,1.18 26.276,-1.979 26.063,-3.837c-0.213,-1.858 -17.075,-6.9 -17.075,-6.9l0,-0.001Z" style="fill:#403b33;"/><path d="M620.913,294.536c1.556,3.5 7.734,40.716 8.725,49.507c0.991,8.791 4.407,37.222 5.989,42.731c1.582,5.509 3.749,8.163 4.021,9.983c0.272,1.82 -1.464,5.278 -1.08,6.938c0.384,1.66 4.068,5.06 4.068,5.06l17.694,6.257c0,-0 2.7,-0.436 2.487,-3.8c-0.057,-0.906 -1.3,-9.26 -1.424,-10.2c-0.124,-0.94 1.964,-2.132 1.719,-5.209c-0.1,-1.23 -2.242,-9.735 -3.164,-14.671c-0.922,-4.936 -2.171,-11.936 -2.034,-17.26c0.137,-5.324 -1.354,-6.91 -1.933,-12.122c-0.579,-5.212 0.572,-24.986 -0.531,-32.938c-1.076,-7.757 -2.628,-28.722 -2.772,-38.614c-0.069,-4.65 -36.118,4.529 -31.765,14.333l0,0.005Z" style="fill:#9e978e;"/><path d="M616.344,169.952c0,-0 3.143,7.121 1.377,10.415c-1.766,3.294 -7.388,4.532 -7.388,4.532c-0.435,14.1 18.264,14.559 26.31,-0.147c0,-0 -4.889,-1.359 -7.339,-3.9c-2.45,-2.541 -0.944,-11.69 -0.944,-11.69c-0.867,-4.051 -9.706,-4.771 -12.016,0.786l0,0.004Z" style="fill:#ffb7a6;"/><path d="M627.994,172.487c0.133,-1.885 0.366,-3.321 0.366,-3.321c-0.867,-4.051 -9.706,-4.771 -12.016,0.786c0,-0 3,6.807 1.473,10.187c4.341,-1.286 8.158,-3.622 10.177,-7.652Z" style="fill:#ff9495;"/><path d="M616.215,192.655c-3.778,-1.635 -4.493,-7.1 -4.236,-7.848c0.088,-0.209 0.225,-0.394 0.4,-0.538c-0.667,0.252 -1.349,0.463 -2.043,0.63c-0.345,11.211 11.393,13.787 20.267,6.992c-3.649,2.322 -10.626,2.392 -14.388,0.764Z" style="fill:#ff9495;fill-rule:nonzero;"/><path d="M611.287,183.774c0,-0 -7.552,1.329 -9.73,4.1c-1.6,2.036 -0.331,28.151 0.557,40.74c0.888,12.589 -0.976,31.965 -1.682,38.78c-0.706,6.815 2.831,7.972 2.831,7.972c15.336,4.655 32.245,4.691 49.106,-0.273c0,0 3.239,-5.379 2.369,-8.41c-0.87,-3.031 -2.824,-24.914 -3.109,-37.914c-0.285,-13 2.734,-36.584 -2.541,-39.161c-9.607,-4.696 -13.209,-5.966 -13.209,-5.966c-10.034,15.73 -25.988,12.548 -24.592,0.135l0,-0.003Z" style="fill:#9fdded;"/><path d="M654.739,266.68c-0.871,-3.033 -2.824,-24.914 -3.11,-37.915c-0.248,-11.263 1.982,-30.457 -0.846,-37.066c0.034,4.202 -0.553,8.386 -1.743,12.417c-2.115,7.109 -6.927,8.438 -5.385,14.455c1.278,4.983 3.038,9.6 3.845,20.533c1.1,14.853 0.087,13.512 2.421,20.025c0.713,1.99 1.452,7.318 0.675,8.578c-0.895,1.769 -2.381,3.172 -4.2,3.964c-5.467,2.858 -18.419,5.319 -27.435,6.772c11.246,1.029 22.584,-0.11 33.4,-3.353c10.817,-3.243 3.247,-5.379 2.378,-8.41Z" style="fill:#87ccde;fill-rule:nonzero;"/><path d="M610.911,242.342c8.649,-5.581 19.1,-19.766 20.944,-29.871" style="fill:none;fill-rule:nonzero;stroke:#fff;stroke-width:0.56px;stroke-linecap:round;stroke-linejoin:round;stroke-miterlimit:4;"/><path d="M609.471,159.225c-8.758,-5.025 -9.939,-14.424 -2.385,-15.291c-3.413,-9.652 10.695,-16.375 19.9,-5.225c5.693,-2.831 11.215,1.671 9.641,8.852c0,-0 2.547,2.467 2.674,4.324c0.41,5.915 -5.385,16.283 -5.385,16.283l-24.448,-8.943l0.003,0Z" style="fill:#03008f;"/><path d="M612.165,147.393c-3.336,6.975 -4.744,17.377 -4.6,21.281c0.249,6.738 7.159,10.545 13.268,8.564c3.539,-1.178 6.627,-3.425 8.836,-6.43c6.407,1.935 7.858,-6.494 1.894,-6.259c0,-0 0.415,-9.832 -0.947,-13.844c-1.362,-4.012 -17.373,-5.569 -18.452,-3.312l0.001,-0Z" style="fill:#ffb7a6;"/><path d="M621.625,162.315c0.001,-0 0.001,-0 0.001,-0c0.647,-0 1.179,0.532 1.179,1.179c0,0.647 -0.532,1.179 -1.179,1.179c-0.646,-0 -1.179,-0.532 -1.179,-1.179c0,-0 0,-0.001 0,-0.001c0,-0.646 0.532,-1.178 1.178,-1.178Z"/><path d="M613.712,156.658c-1.273,-0.835 -2.524,-0.482 -3.687,0.791" style="fill:none;fill-rule:nonzero;stroke:#000;stroke-width:0.56px;stroke-linecap:round;stroke-linejoin:round;stroke-miterlimit:4;"/><path d="M611.539,160.303c0.647,-0 1.179,0.532 1.179,1.179c0,0.647 -0.532,1.179 -1.179,1.179c-0.646,-0 -1.179,-0.532 -1.179,-1.179c0.001,-0.647 0.533,-1.178 1.179,-1.179Z"/><path d="M621.398,158.042c0.193,-0.032 0.388,-0.048 0.582,-0.048c1.966,0 3.583,1.618 3.583,3.583m-11.475,0.83c0,-0 -2.326,3.331 -2.743,4.086c-0.607,1.1 1.093,2.267 2.93,2.174m-0.724,3.572l0.782,0.943m16.5,-3.954c0.41,-1.763 2.033,-3.277 3.516,-2.018" style="fill:none;fill-rule:nonzero;stroke:#000;stroke-width:0.56px;stroke-linecap:round;stroke-linejoin:round;stroke-miterlimit:4;"/><path d="M609.166,153.165c0.912,0.762 2.665,-0.625 3.41,-3.223c-1.021,5.659 6.279,5.417 12.287,0.168c-0.081,5.024 2.715,6.737 5.345,6.021c0.074,4.126 0.752,6.377 1.662,7.906c0,0 4.31,-13.549 2.223,-16.033c-2.087,-2.484 -20.037,-4.779 -22.148,-3c-2.111,1.779 -2.779,8.157 -2.779,8.157l0,0.004Z" style="fill:#03008f;"/><path d="M664.804,276.861c0,0 0.376,1.648 0.742,3.419c0.366,1.771 -2.175,4.192 -2.339,6.832c-0.164,2.64 -0.563,7.059 -0.64,8.674c-0.077,1.615 2.38,1.178 2.837,-1.522c0.457,-2.7 1.222,-4.33 1.57,-3.34c0.522,2.152 0.868,4.342 1.036,6.55c-0.077,1.729 -0.379,3.441 -0.9,5.092c-0.8,2.688 1.3,4.8 1.961,2.969c0.367,-1.022 0.705,-2 0.705,-2c0.633,0.874 1.47,1.045 1.806,0.18l0.79,-2.3c0.487,0.52 1.069,0.538 1.247,0.076c0.211,-0.551 0.377,-1.055 0.552,-1.582c0.259,0.175 0.607,0.355 0.739,-0.2c0.414,-1.942 0.694,-3.91 0.839,-5.89c0.021,-0.623 -0.94,-7.455 -1.111,-8.191c-0.361,-1.55 -1.968,-4.378 -2.244,-5.556c-0.276,-1.178 -0.883,-5.05 -0.883,-5.05l-6.707,1.839Z" style="fill:#ffb7a6;"/><path d="M666.387,226.423c1.746,8.886 7.45,36.962 8.844,40.938c1.394,3.976 -1.707,7.24 -1.707,7.24c0.183,1.493 0.258,2.997 0.222,4.5c-0.565,2.285 -8.76,3.5 -9.368,1.581c-0.349,-1.1 -1.278,-4.331 -1.278,-4.331c0,0 -3.633,-0.881 -4.5,-3.7c-0.867,-2.819 -3.648,-23.18 -5.119,-28.017c-1.471,-4.837 -8.055,-22.209 -9.829,-26.071c-1.774,-3.862 -2.3,-33.137 6.127,-28.472c8.427,4.665 14.86,27.444 16.608,36.332Z" style="fill:#9fdded;"/><path d="M193.739,188.763c2.2,2.221 6.913,14.056 8.284,19.864c1.286,4.638 2.958,9.159 5,13.517c9.813,-2.587 19.463,-5.755 28.9,-9.487c4.755,-1.949 6.337,5.108 2.7,7.23c-16.206,9.444 -32.616,16.55 -35.527,15.806c-2.911,-0.744 -15.979,-21.139 -16.336,-27.936c-0.357,-6.797 2.842,-23.177 6.982,-18.994l-0.003,-0Z" style="fill:#ffb7a6;"/><path d="M235.929,212.689c0,-3.379 4.884,-5.524 6.351,-7.2c0.871,-0.701 2.078,-0.825 3.073,-0.316c1.874,1.56 4.138,2.578 6.548,2.943c1.392,0.267 0.8,2.671 -2.5,2.973c-1.608,0.072 -3.185,-0.467 -4.414,-1.508c2.687,3.412 7.309,5.014 7.552,5.761c0.243,0.747 -8.009,4.539 -9,4.469c-0.991,-0.07 -2.377,0.359 -3.589,-0.866c-1.847,1.373 -1.7,1.155 -1.7,1.155c-2.156,1.136 -6.2,-4.821 -2.319,-7.416l-0.002,0.005Z" style="fill:#ffb7a6;"/><path d="M271.75,224.373c-4.914,-9.132 -13.606,-12.455 -20.257,-11.471c-3.066,0.551 -5.884,2.049 -8.056,4.283c-14.743,14.066 -4.272,63.136 -16.87,100.929c-6.386,17.706 -15.93,34.109 -28.167,48.411c-52.861,61.946 -163.161,44.854 -176.04,42.69" style="fill:none;stroke:#000;stroke-width:4.45px;"/><path d="M271.676,222.39c3.286,-0.698 6.312,0.415 6.752,2.485c0.44,2.069 -1.871,4.317 -5.158,5.016c-3.287,0.698 -6.312,-0.415 -6.752,-2.485c-0.44,-2.07 1.871,-4.317 5.158,-5.016Z" style="fill:#b3b3b3;"/><path d="M288.1,234.548c-4.078,-16.269 -29.376,-10.892 -26.485,5.629l2.684,15.335l27.586,-5.864l-3.785,-15.1Z" style="fill:#4d4d4d;"/><path d="M263.22,249.342l1.079,6.168l27.586,-5.864l-1.522,-6.073c-4.813,-3.454 -24.153,0.656 -27.143,5.769Z" style="fill:#b3b3b3;"/><path d="M291.885,249.648c0.2,1.569 -5.715,4.109 -13.2,5.7c-7.485,1.591 -13.925,1.676 -14.382,0.163c-0.466,-1.542 5.433,-4.15 13.184,-5.8c7.751,-1.65 14.197,-1.661 14.398,-0.063Z" style="fill:#ccc;"/><path d="M273.476,254.573l2.374,11.168c0.119,0.561 -0.239,1.113 -0.8,1.233c-0.561,0.119 -1.113,-0.24 -1.233,-0.801l-2.374,-11.168c-0.119,-0.561 0.24,-1.113 0.801,-1.232c0.561,-0.12 1.113,0.239 1.232,0.8Z" style="fill:#b3b3b3;"/><path d="M285.153,252.091l2.374,11.169c0.119,0.561 -0.24,1.113 -0.801,1.232c-0.561,0.119 -1.113,-0.239 -1.232,-0.8l-2.374,-11.169c-0.119,-0.561 0.24,-1.113 0.8,-1.232c0.561,-0.119 1.114,0.239 1.233,0.8Z" style="fill:#b3b3b3;"/><path d="M254.661,217.215c0.127,-0.818 -2.151,-2.7 -3.125,-2.985c-0.118,-0.031 -0.24,-0.046 -0.363,-0.046c-0.793,-0 -1.447,0.653 -1.447,1.447c0,0.025 0.001,0.051 0.002,0.076c0.017,0.984 2.172,2.857 3.022,2.971c0.901,0.029 1.705,-0.586 1.911,-1.463Z" style="fill:#ffb7a6;"/><path d="M251.986,218.976c0.135,-0.871 -2.29,-2.876 -3.325,-3.178c-0.126,-0.033 -0.256,-0.05 -0.387,-0.05c-0.844,0 -1.539,0.695 -1.539,1.539c0,0.028 0.001,0.056 0.002,0.084c0.017,1.046 2.311,3.041 3.216,3.161c0.959,0.032 1.814,-0.623 2.033,-1.556Z" style="fill:#ffb7a6;"/><path d="M248.607,220.248c0.124,-0.793 -2.088,-2.622 -3.032,-2.9c-0.116,-0.031 -0.236,-0.046 -0.357,-0.046c-0.768,-0 -1.4,0.632 -1.4,1.4c0,0.026 0.001,0.053 0.002,0.08c0.016,0.955 2.107,2.774 2.933,2.883c0.875,0.03 1.655,-0.568 1.854,-1.42l0,0.003Z" style="fill:#ffb7a6;"/><path d="M244.954,220.907c0.11,-0.708 -1.859,-2.336 -2.7,-2.581c-0.102,-0.027 -0.208,-0.04 -0.314,-0.04c-0.686,-0 -1.25,0.564 -1.25,1.25c-0,0.022 0,0.045 0.001,0.067c0.014,0.85 1.877,2.471 2.613,2.569c0.779,0.025 1.473,-0.507 1.651,-1.265l-0.001,-0Z" style="fill:#ffb7a6;"/><path d="M189.524,409.359c0.715,1.044 1.565,1.988 2.527,2.808c3.785,2.7 6.39,2.847 6.28,5.058c-0.078,1.548 -18.736,-0.2 -18.921,-1.378c-0.185,-1.178 10.114,-6.488 10.114,-6.488Z" style="fill:#403b33;"/><path d="M198.72,272.2c1.164,13.706 -1.613,53.195 -3.483,72.592c-0.99,10.26 -6.086,64.942 -6.086,64.942l-9.592,6.281c0,-0 -3.233,-29.355 -4.111,-47.294c-0.492,-10.048 4.882,-22.608 4.943,-24.632c0.067,-2.2 -6.286,-45.124 -10.975,-50.082c-4.689,-4.958 -23.19,-1.887 -24.365,-8.036c-1.06,-6.11 -0.575,-12.39 1.412,-18.264c1.9,-5.168 50.994,-10.394 52.257,4.493Z" style="fill:#ffb7a6;"/><path d="M192.771,370.975c1.082,-11.554 2.082,-22.206 2.466,-26.183c1.87,-19.4 4.647,-58.886 3.483,-72.592c-1.263,-14.887 -50.36,-9.661 -52.257,-4.493c-1.987,5.874 -2.472,12.154 -1.412,18.264c1.175,6.149 19.675,3.077 24.365,8.036c4.69,4.959 11.042,47.885 10.975,50.082c-0.061,2.024 -5.435,14.584 -4.943,24.632c0.011,0.208 0.023,0.425 0.033,0.637c5.647,1.42 11.478,1.966 17.29,1.617Z" style="fill:#fa8c9f;"/><path d="M177.974,300.608c-0.447,-4.021 0.539,-9.784 1.54,-11.479c-2.857,0.201 -5.728,-0.046 -8.509,-0.734c-5.772,-1.444 -8.073,-4.1 -11.882,-5.574c-3.049,-1.176 -7.635,-1.808 -14.435,0.565c0.09,0.884 0.2,1.752 0.363,2.585c1.175,6.149 19.675,3.077 24.365,8.036c4.319,4.568 10.047,41.334 10.871,48.818c0.711,-2.245 1.19,-4.557 1.427,-6.9c1.55,-15.583 -2.2,-21.454 -3.74,-35.317Z" style="fill:#f9738a;fill-rule:nonzero;"/><path d="M152.009,411.018c0.636,0.981 1.394,1.877 2.256,2.666c3.449,2.41 7.754,2.795 7.2,5.313c-0.261,1.18 -19.426,1.059 -19.213,-0.8c0.213,-1.859 9.757,-7.179 9.757,-7.179Z" style="fill:#403b33;"/><path d="M172.686,288.151c-0.008,3.833 -4.177,50.466 -5.167,59.257c-0.99,8.791 -15.429,64.246 -15.429,64.246l-9.664,6.532c0,0 -0.882,-40.961 0.755,-50.226c0.928,-5.246 7.88,-17.852 8.229,-23.086c0.2,-2.962 -6.658,-29.187 -6.784,-64.6c-0.019,-5.39 28.089,-5.407 28.06,7.876l0,0.001Z" style="fill:#ffb7a6;"/><path d="M172.686,288.151c0.029,-13.283 -28.079,-13.266 -28.06,-7.876c0.126,35.412 6.981,61.637 6.784,64.6c-0.293,4.4 -5.235,13.983 -7.362,20.051c5.812,2.486 12.5,2.49 19.2,2.332c2.2,-9.207 3.947,-16.993 4.269,-19.849c0.992,-8.792 5.161,-55.425 5.169,-59.258Z" style="fill:#fa8c9f;"/><path d="M180.713,169.952c0,-0 -3.142,7.121 -1.376,10.415c1.766,3.294 7.386,4.532 7.386,4.532c0.435,14.1 -18.262,14.559 -26.31,-0.147c0,-0 4.89,-1.359 7.339,-3.9c2.449,-2.541 0.945,-11.69 0.945,-11.69c0.868,-4.051 9.706,-4.771 12.016,0.786l0,0.004Z" style="fill:#ffb7a6;"/><path d="M179.446,180.542c-0.035,-0.059 -0.077,-0.114 -0.109,-0.174c-1.766,-3.294 1.376,-10.415 1.376,-10.415c-2.31,-5.557 -11.148,-4.837 -12.016,-0.786c0,-0 0.264,1.62 0.39,3.681c1.382,4.501 5.407,7.294 10.359,7.694Z" style="fill:#ff9495;"/><path d="M185.351,184.507c0.137,1.939 -0.34,3.873 -1.363,5.526c-2.249,3.454 -7.328,5.2 -13.234,4.354c7.939,3.284 16.261,-0.024 15.969,-9.488c0,-0 -0.556,-0.122 -1.372,-0.392Z" style="fill:#ff9495;fill-rule:nonzero;"/><path d="M186.332,184.535c0,-0 4.654,1.337 7.238,3.73c1.272,1.177 0.789,3.963 2.027,9.243c1.078,4.605 3.637,10.685 4.933,15.858c1.391,5.549 -5.281,10.911 -5.587,15.245c-0.889,12.59 -0.68,22.987 1.214,29.571c1.666,5.434 2.581,11.07 2.717,16.752c-15.337,4.657 -37.81,4.812 -54.672,-0.151c1.1,-18.987 14.444,-37.028 12.888,-41.364c-3.921,-10.928 -14.354,-41.153 -9.121,-43.814c4.116,-2.05 8.352,-3.847 12.685,-5.383c10.035,15.73 27.075,12.726 25.678,0.313Z" style="fill:#afeadc;"/><path d="M160.81,240.534c1.058,-0.805 3.737,-2.53 3.63,-4.621c-0.107,-2.091 -7.186,-8.694 -9.792,-19.144c-0.436,-2.324 -0.694,-4.678 -0.77,-7.042c-0.763,-10.6 0.7,-14.687 -1.98,-17.494c-1.23,-1.194 -2.838,-1.925 -4.548,-2.065c-3.648,4.882 6,32.831 9.74,43.251c1.556,4.336 -11.792,22.377 -12.888,41.364l0.113,0.031c5.396,-21.59 11.479,-30.464 16.495,-34.28Z" style="fill:#8fe2ce;fill-rule:nonzero;"/><path d="M186.146,242.342c-8.648,-5.581 -19.1,-19.766 -20.943,-29.871" style="fill:none;fill-rule:nonzero;stroke:#fff;stroke-width:0.56px;stroke-linecap:round;stroke-linejoin:round;stroke-miterlimit:4;"/><path d="M162.459,145.021c-4.041,-4.306 -14.97,-5.843 -19.014,3.054c-4.044,8.897 -0.8,12.086 -5.085,16.149c-4.767,4.52 -13.579,6.657 -13.777,15.46c-0.232,10.244 -5.088,12.177 -3.756,19.355c2.193,11.813 18.712,11.892 22.384,0.137c2.39,-7.648 -1.21,-10.7 2.838,-17.5c4.048,-6.8 8.346,-8.279 9.456,-12.922c1.11,-4.643 -1.024,-12.569 2.835,-14.028c3.859,-1.459 7.171,-6.449 4.119,-9.7l0,-0.005Z" style="fill:#03008f;"/><path d="M158.139,155.761l3.777,-12.008c-7.326,-1.913 -10.788,10 -3.777,12.008Z" style="fill:#9de7d7;"/><path d="M160.363,144.831c-3.575,5.01 -5.679,15.237 4.256,23.342c8.518,6.951 20.793,-0.749 21.676,-11.347c5.682,4.027 8.486,-8.4 -0.852,-14.736c-6.5,-4.407 -19.16,-5.553 -25.08,2.741Z" style="fill:#03008f;"/><path d="M184.893,147.393c3.336,6.975 4.464,15.459 4.849,20.052c0.341,4.067 -6.535,12.062 -12.644,10.081c-3.763,-1.36 -7.11,-3.676 -9.711,-6.718c-6.407,1.935 -7.857,-6.494 -1.894,-6.259c0,-0 -0.415,-9.832 0.947,-13.844c1.362,-4.012 17.373,-5.569 18.453,-3.312Z" style="fill:#ffb7a6;"/><path d="M175.432,162.315c0,-0 -0,-0 -0.001,-0c-0.646,-0 -1.179,0.532 -1.179,1.179c0,0.647 0.533,1.179 1.179,1.179c0.647,-0 1.179,-0.532 1.179,-1.179c0,-0 0,-0.001 0,-0.001c0,-0.646 -0.531,-1.178 -1.178,-1.178Z"/><path d="M173.591,163.082l1.386,0.245" style="fill:none;fill-rule:nonzero;stroke:#000;stroke-width:0.53px;stroke-linecap:round;stroke-linejoin:round;stroke-miterlimit:4;"/><path d="M183.346,156.658c1.271,-0.835 2.523,-0.482 3.687,0.791" style="fill:none;fill-rule:nonzero;stroke:#000;stroke-width:0.56px;stroke-linecap:round;stroke-linejoin:round;stroke-miterlimit:4;"/><path d="M185.517,160.303c-0.646,0.001 -1.178,0.533 -1.178,1.179c0,0.647 0.533,1.179 1.179,1.179c0.647,-0 1.179,-0.532 1.179,-1.179c0,-0.647 -0.532,-1.179 -1.179,-1.179c0,-0 -0,-0 -0.001,-0Z"/><path d="M186.176,160.998l0.593,-0.613" style="fill:none;fill-rule:nonzero;stroke:#000;stroke-width:0.53px;stroke-linecap:round;stroke-linejoin:round;stroke-miterlimit:4;"/><path d="M175.66,158.042c-0.192,-0.032 -0.387,-0.048 -0.582,-0.048c-1.965,0 -3.583,1.617 -3.584,3.583m11.738,3.564c0,0 1.342,1.877 1.584,2.3c0.349,0.618 -0.631,1.277 -1.691,1.225m0.381,3.57l-0.782,0.943m-16.5,-3.954c-0.411,-1.763 -2.034,-3.277 -3.517,-2.018" style="fill:none;fill-rule:nonzero;stroke:#000;stroke-width:0.56px;stroke-linecap:round;stroke-linejoin:round;stroke-miterlimit:4;"/><path d="M165.817,165.459c-0.815,-5.626 1.88,-6.492 0.6,-11.6c4.5,-1.674 15.033,2.73 13.452,-1.183c-1.581,-3.913 10.971,4.583 8.558,-1.921c-2.413,-6.504 -10.456,-8.9 -15.565,-8.125c-7.938,1.21 -15.2,9.357 -7.043,22.824l-0.002,0.005Z" style="fill:#03008f;"/><path d="M132.626,273.27c0,0 -0.376,1.648 -0.742,3.42c-0.366,1.772 2.175,4.191 2.338,6.83c0.163,2.639 0.563,7.061 0.64,8.676c0.077,1.615 -2.378,1.178 -2.837,-1.523c-0.459,-2.701 -1.221,-4.33 -1.568,-3.339c-0.522,2.152 -0.869,4.342 -1.037,6.55c0.077,1.729 0.379,3.441 0.9,5.091c0.8,2.689 -1.305,4.8 -1.962,2.969c-0.367,-1.021 -0.7,-2 -0.7,-2c-0.633,0.874 -1.468,1.045 -1.8,0.18l-0.789,-2.3c-0.489,0.521 -1.07,0.538 -1.248,0.077c-0.212,-0.551 -0.377,-1.056 -0.552,-1.582c-0.258,0.174 -0.608,0.354 -0.74,-0.2c-0.412,-1.942 -0.693,-3.91 -0.839,-5.89c-0.021,-0.623 0.94,-7.456 1.112,-8.191c0.36,-1.551 1.968,-4.379 2.243,-5.557c0.275,-1.178 0.884,-5.05 0.884,-5.05l6.707,1.839l-0.01,0Z" style="fill:#ffb7a6;"/><path d="M147.276,190.099c-6.868,5.538 -17.685,40.893 -19.433,49.78c-1.748,8.887 -2.885,36.368 -2.7,37.1c0.564,2.285 6.022,2.355 6.631,0.431c0.347,-1.1 7.215,-31.224 8.684,-36.061c1.469,-4.837 10.414,-25.461 12.186,-29.323c1.772,-3.862 -0.521,-25.828 -5.363,-21.923l-0.005,-0.004Z" style="fill:#ffb7a6;"/></g></g></svg>