<?xml version="1.0" encoding="UTF-8" standalone="no"?>
<svg xmlns="http://www.w3.org/2000/svg" xmlns:xlink="http://www.w3.org/1999/xlink" xmlns:serif="http://www.serif.com/" width="100%" height="100%" viewBox="0 0 341 71" version="1.1" xml:space="preserve" style="fill-rule:evenodd;clip-rule:evenodd;stroke-linejoin:round;stroke-miterlimit:2;">
    <g transform="matrix(1,0,0,1,-93.8234,-8.81144)">
        <g transform="matrix(1.68892,0,0,1.68892,61.0924,-35.793)">
            <g transform="matrix(0.881644,0,0,0.881644,-5.2697,5.5902)">
                <path d="M55.514,46.776C57.648,47.697 59.311,49.078 60.504,50.919C61.696,52.76 62.292,54.936 62.292,57.447C62.292,61.129 61.079,64.142 58.652,66.485C56.225,68.828 52.898,70 48.672,70L27.959,70L27.959,25.31L46.663,25.31C51.057,25.31 54.447,26.356 56.832,28.448C59.217,30.54 60.409,33.407 60.409,37.047C60.409,41.65 58.777,44.893 55.514,46.776ZM45.157,33.03L36.934,33.03L36.934,43.638L45.157,43.638C47.124,43.638 48.651,43.177 49.739,42.257C50.827,41.336 51.371,39.997 51.371,38.24C51.371,34.767 49.3,33.03 45.157,33.03ZM36.934,62.28L46.663,62.28C50.932,62.28 53.066,60.48 53.066,56.882C53.066,53.157 50.932,51.295 46.663,51.295L36.934,51.295L36.934,62.28Z" style="fill:rgb(28,28,28);fill-rule:nonzero;"></path>
            </g>
            <g transform="matrix(0.881644,0,0,0.881644,-5.2697,5.5902)">
                <rect x="69.448" y="23.615" width="8.787" height="46.385" style="fill:rgb(28,28,28);fill-rule:nonzero;"></rect>
            </g>
            <g transform="matrix(0.881644,0,0,0.881644,-5.2697,5.5902)">
                <path d="M114.578,49.63L114.578,58.2C114.578,62.217 113.249,65.334 110.592,67.552C107.935,69.77 104.514,70.879 100.33,70.879C96.187,70.879 92.777,69.77 90.098,67.552C87.42,65.334 86.081,62.217 86.081,58.2L86.081,39.056L94.869,39.056L94.869,56.944C94.869,58.827 95.36,60.25 96.344,61.213C97.327,62.175 98.656,62.656 100.33,62.656C102.003,62.656 103.332,62.175 104.315,61.213C105.299,60.25 105.79,58.827 105.79,56.944L105.79,47.275L114.578,49.63Z" style="fill:rgb(28,28,28);"></path>
            </g>
            <g transform="matrix(0.522017,0,0,0.522017,-2.70786,24.2748)">
                <path d="M173.764,36.804L173.764,23.169L188.605,23.169L188.605,40.78L173.764,36.804Z" style="fill:rgb(25,141,244);"></path>
            </g>
            <g transform="matrix(0.755141,0,0,0.755141,-115.384,4.82074)">
                <g transform="matrix(72.7288,0,0,72.7288,448.185,82.4312)">
                </g>
                <text x="282px" y="82.431px" style="font-family:'IQOS-Bold', 'IQOS', sans-serif;font-weight:700;font-size:72.729px;fill:rgb(28,28,28);">base</text>
            </g>
        </g>
    </g>
</svg>
