<?xml version="1.0" encoding="UTF-8" standalone="no"?>
<!DOCTYPE svg PUBLIC "-//W3C//DTD SVG 1.1//EN" "http://www.w3.org/Graphics/SVG/1.1/DTD/svg11.dtd">
<svg width="100%" height="100%" viewBox="0 0 326 360" version="1.1" xmlns="http://www.w3.org/2000/svg" xmlns:xlink="http://www.w3.org/1999/xlink" xml:space="preserve" xmlns:serif="http://www.serif.com/" style="fill-rule:evenodd;clip-rule:evenodd;stroke-linejoin:round;stroke-miterlimit:2;">
    <g transform="matrix(1,0,0,1,-308.648,-697.105)">
        <g>
            <g transform="matrix(0.603623,0,0,0.603623,258.156,713.078)">
                <path d="M327.04,431.2C320.88,428.962 318.079,427.841 311.919,425.598C314.157,418.317 315.278,406.559 310.798,394.239C305.759,380.239 295.677,369.04 290.079,362.88C287.841,360.642 285.04,360.642 283.36,362.88C279.438,369.041 272.719,381.36 276.641,396.482C278.321,402.643 281.122,408.244 285.04,413.283C272.161,406.565 266.56,402.642 254.802,394.244C258.724,387.526 262.642,376.322 261.521,364.006C260.399,349.447 253.122,336.006 249.759,329.287C248.637,327.049 245.278,325.928 243.04,328.166C238.001,333.205 228.481,343.846 228.481,358.967C228.481,365.127 230.16,371.287 232.403,376.889C221.762,367.37 217.282,362.33 207.762,352.248C212.801,346.647 219.524,337.127 221.762,324.248C224,309.689 220.641,295.689 218.402,287.85C217.844,285.049 214.48,283.928 212.242,285.049C206.082,288.971 194.32,296.811 190.961,311.369C189.281,317.53 189.84,323.689 190.402,329.849C182.563,318.65 179.203,312.491 172.48,300.169C178.641,295.689 187.601,287.85 192.64,276.092C198.242,262.651 198.242,248.092 197.68,240.252C197.68,237.451 194.879,235.212 192.64,236.33C185.922,238.568 172.48,243.611 165.761,257.049C162.961,262.65 161.84,268.811 161.281,274.971C156.242,262.092 154,255.369 150.64,241.932C157.921,239.131 167.999,233.533 175.839,223.452C184.237,211.69 187.601,197.132 189.28,189.292C189.839,186.491 187.6,183.69 185.358,184.253C178.077,184.811 164.077,187.053 154.557,198.253C150.635,203.292 147.838,208.894 146.159,215.054C144.479,201.054 143.92,194.335 143.358,179.773C151.198,178.651 162.397,175.851 171.917,167.453C183.116,157.933 189.839,143.933 193.198,136.094C194.319,133.293 193.198,130.492 190.397,129.933C183.116,128.812 169.116,127.695 156.795,136.652C152.877,140.004 148.397,145.605 145.6,150.644C147.28,134.964 148.401,127.124 152.319,111.445C153.44,105.844 151.76,100.804 147.838,99.683C143.916,98.562 139.44,102.484 138.319,108.082C134.397,124.32 132.717,132.723 131.038,148.961C128.799,142.8 126.557,136.082 123.198,130.481C114.799,115.922 102.479,110.321 95.198,108.083C92.96,107.524 90.159,110.883 89.596,115.364C89.038,127.126 91.276,149.524 101.358,163.524C110.319,175.286 122.077,178.645 129.358,179.204C129.358,194.325 129.917,201.602 132.159,216.165C128.8,210.563 124.878,204.966 119.839,200.485C108.077,189.286 94.64,186.485 87.359,185.926C84.558,185.926 82.879,189.848 84,193.766C86.8,204.965 94.078,225.688 106.961,236.325C118.16,245.844 130.481,245.844 137.762,244.723C141.121,258.723 143.363,266.004 148.961,279.442C144.48,274.961 139.441,270.481 133.84,267.122C119.84,258.724 105.84,259.282 99.121,260.962C96.32,261.52 95.761,266.001 97.441,269.36C102.48,279.438 114.242,297.36 129.363,304.641C142.242,310.801 154.004,308.563 161.285,305.762C168.004,318.641 171.926,324.801 180.324,337.121C174.722,333.762 169.125,330.402 162.402,328.723C146.722,323.684 133.843,327.602 127.121,330.961C124.883,332.082 124.883,336.563 127.68,339.36C134.961,348.32 150.641,362.88 166.879,366.801C180.879,370.16 192.078,364.562 198.238,360.64C207.757,371.839 212.797,376.878 224,386.96C217.839,384.722 211.121,383.038 204.398,383.038C188.16,381.917 176.398,388.64 170.796,393.116C168.557,394.796 169.674,398.718 173.034,401.515C181.995,408.234 201.034,419.437 217.835,419.437C232.394,419.437 241.913,411.597 246.956,405.996C259.276,414.957 265.436,418.875 278.878,425.598C272.159,425.039 265.437,425.039 258.718,426.156C242.48,428.957 232.398,437.918 227.917,443.515C226.237,445.754 228.475,449.676 232.397,451.355C243.038,455.836 264.319,462.554 281.116,458.636C295.675,455.277 302.956,445.757 306.878,439.034C313.039,441.835 316.398,442.956 323.116,445.195C328.718,446.874 334.315,445.195 335.436,441.273C335.999,437.362 332.077,432.882 327.038,431.203L327.04,431.2Z" style="fill:url(#_Radial1);fill-rule:nonzero;"/>
            </g>
            <g transform="matrix(0.603623,0,0,0.603623,258.156,713.078)">
                <path d="M593.04,236.88C605.919,226.239 613.2,205.521 616.001,194.321C617.122,190.399 614.88,185.923 612.642,186.481C605.36,186.481 591.923,189.282 580.162,201.04C575.681,205.521 571.201,211.118 567.842,216.72C570.08,202.161 570.642,194.88 570.642,179.759C578.482,178.638 590.244,175.837 598.642,164.079C608.72,150.638 610.962,128.239 610.404,115.919C610.404,111.439 607.604,108.079 604.803,108.638C598.084,110.876 585.201,116.478 576.803,131.036C573.443,136.638 570.643,143.356 568.963,149.516C567.283,133.278 566.162,124.875 561.682,108.637C560.002,103.035 555.522,99.118 552.162,100.239C548.24,101.36 546.561,106.957 547.682,112.001C551.604,127.681 552.721,135.521 554.401,151.2C551.041,145.598 547.119,140.559 542.081,136.641C529.761,127.121 515.761,128.242 508.479,129.922C505.678,130.48 504.557,133.281 505.678,136.082C509.037,143.363 515.756,157.363 526.959,167.441C536.478,175.839 548.24,179.203 555.518,179.761C555.518,193.761 554.959,201.042 552.717,215.042C551.037,208.882 548.236,203.28 544.319,198.241C534.799,186.479 520.799,184.241 513.518,184.241C510.717,184.241 509.037,186.479 509.596,189.28C511.275,197.12 514.076,211.678 523.037,223.44C530.318,233.518 540.959,239.12 548.236,241.92C544.876,255.361 542.634,262.08 537.595,274.959C537.036,268.799 535.915,262.639 533.114,257.037C526.395,243.596 512.954,238.557 506.235,236.318C503.997,235.76 501.196,237.439 501.196,240.24C500.638,248.08 500.638,263.201 506.235,276.08C511.274,287.842 519.676,295.682 526.395,300.158C520.235,312.478 516.317,318.638 508.473,329.838C509.594,323.678 509.594,317.518 507.915,311.358C504.555,296.799 492.794,288.397 486.634,285.038C484.395,283.917 481.595,285.038 480.473,287.839C478.235,295.12 474.872,309.679 477.114,324.237C479.352,336.557 486.075,346.635 491.114,352.237C482.153,362.878 477.114,367.917 466.473,376.878C468.711,371.276 470.395,365.116 470.395,358.956C470.395,343.835 460.875,333.194 455.836,328.155C454.156,326.475 450.797,327.034 449.117,329.276C445.195,335.995 438.476,349.436 437.355,363.995C436.234,376.874 440.715,387.515 444.074,394.233C432.875,402.631 426.715,406.553 413.836,413.272C417.758,408.233 421.117,402.631 422.234,396.471C426.156,381.35 419.434,369.03 415.516,362.869C414.394,360.631 411.035,360.631 408.797,362.869C403.195,368.471 393.117,380.228 388.078,394.228C383.597,406.548 385.277,418.306 386.957,425.587C380.796,427.825 377.996,428.946 371.836,431.189C366.234,432.868 362.875,437.349 363.996,441.267C365.117,445.188 370.715,446.868 376.316,445.188C383.035,442.95 385.835,441.829 392.554,439.028C396.476,445.747 403.753,455.266 418.316,458.63C435.117,462.552 456.394,456.392 467.035,451.349C470.957,449.669 473.195,445.747 471.515,443.509C467.035,437.908 456.956,428.388 440.714,426.15C433.996,425.029 427.273,425.029 420.554,425.592C433.995,418.31 440.156,414.393 452.476,405.99C457.515,411.591 467.035,419.431 481.597,419.431C498.398,419.431 517.437,408.79 526.398,401.509C529.758,399.27 530.879,394.79 528.637,393.11C523.035,388.63 510.715,381.911 495.035,383.032C488.316,383.591 481.594,385.271 475.433,386.954C486.632,376.876 491.671,371.833 501.195,360.634C507.355,365.115 518.554,370.154 532.554,366.794C548.792,363.435 564.476,348.314 571.753,339.353C574.553,335.994 574.553,332.072 572.311,330.955C565.592,327.596 552.709,324.236 537.03,328.717C530.87,330.396 524.71,333.756 519.108,337.115C527.507,325.353 531.428,318.635 538.147,305.756C545.428,308.557 557.186,311.358 570.069,304.635C585.19,297.354 596.948,279.436 601.991,269.354C603.671,265.432 603.112,261.514 600.311,260.956C593.03,259.276 579.592,258.717 565.592,267.116C559.991,270.475 554.951,274.956 550.471,279.436C556.073,265.995 558.311,258.717 561.67,244.717C569.518,246.396 581.838,246.396 593.037,236.877L593.04,236.88Z" style="fill:url(#_Radial2);fill-rule:nonzero;"/>
            </g>
            <g transform="matrix(1.12705,0,0,1.06789,22.6862,581.074)">
                <path d="M339.689,239.787L354.522,237.987C354.995,241.768 356.267,244.658 358.339,246.658C360.412,248.657 362.92,249.657 365.865,249.657C369.028,249.657 371.691,248.457 373.854,246.058C376.017,243.658 377.099,240.423 377.099,236.351C377.099,232.497 376.063,229.444 373.99,227.19C371.918,224.935 369.391,223.808 366.41,223.808C364.447,223.808 362.102,224.19 359.376,224.954L361.066,212.466C365.211,212.575 368.374,211.675 370.555,209.766C372.736,207.858 373.827,205.322 373.827,202.159C373.827,199.469 373.027,197.324 371.427,195.724C369.828,194.124 367.701,193.324 365.047,193.324C362.429,193.324 360.194,194.233 358.339,196.051C356.485,197.869 355.358,200.523 354.958,204.013L340.834,201.613C341.816,196.778 343.297,192.915 345.279,190.025C347.26,187.135 350.023,184.863 353.568,183.209C357.112,181.554 361.084,180.727 365.483,180.727C373.009,180.727 379.044,183.127 383.588,187.926C387.333,191.852 389.205,196.287 389.205,201.232C389.205,208.248 385.37,213.847 377.699,218.028C382.279,219.01 385.942,221.209 388.687,224.626C391.432,228.044 392.804,232.17 392.804,237.005C392.804,244.022 390.241,250.002 385.115,254.947C379.989,259.891 373.609,262.363 365.974,262.363C358.739,262.363 352.741,260.282 347.978,256.119C343.216,251.957 340.453,246.512 339.689,239.787Z" style="fill:white;fill-rule:nonzero;"/>
                <path d="M402.566,240.441L417.835,238.86C418.271,242.313 419.562,245.049 421.707,247.067C423.852,249.085 426.324,250.093 429.123,250.093C432.323,250.093 435.031,248.794 437.249,246.194C439.466,243.595 440.575,239.678 440.575,234.442C440.575,229.534 439.476,225.853 437.276,223.399C435.077,220.945 432.214,219.718 428.687,219.718C424.288,219.718 420.344,221.663 416.853,225.554L404.42,223.754L412.273,182.145L452.791,182.145L452.791,196.487L423.888,196.487L421.489,210.066C424.906,208.357 428.396,207.503 431.959,207.503C438.758,207.503 444.52,209.975 449.246,214.92C453.972,219.864 456.335,226.281 456.335,234.17C456.335,240.75 454.427,246.621 450.609,251.784C445.411,258.837 438.194,262.363 428.96,262.363C421.58,262.363 415.563,260.382 410.909,256.419C406.256,252.456 403.475,247.13 402.566,240.441Z" style="fill:white;fill-rule:nonzero;"/>
            </g>
            <g transform="matrix(0.606863,0,0,0.606863,172.551,587.513)">
                <path d="M342.079,264.351C340.814,264.351 339.529,264.034 338.226,263.401C336.923,262.768 335.844,261.745 334.988,260.33C334.131,258.915 333.703,257.128 333.703,254.969C333.703,252.512 334.299,249.757 335.49,246.704C336.681,243.652 338.282,240.618 340.292,237.602C342.303,234.587 344.611,231.795 347.217,229.226C349.823,226.657 352.54,224.61 355.37,223.083C358.199,221.557 360.991,220.794 363.746,220.794C365.31,220.794 366.52,221.073 367.376,221.631C368.232,222.19 368.66,223.065 368.66,224.256C368.66,224.554 368.642,224.814 368.604,225.038C368.567,225.261 368.511,225.522 368.437,225.82C368.064,225.224 367.525,224.796 366.817,224.535C366.11,224.275 365.235,224.144 364.193,224.144C361.81,224.144 359.483,224.87 357.213,226.322C354.942,227.774 352.857,229.673 350.958,232.018C349.06,234.363 347.403,236.876 345.988,239.557C344.574,242.237 343.475,244.824 342.694,247.319C341.912,249.813 341.521,251.916 341.521,253.629C341.521,255.267 341.893,256.57 342.638,257.538C343.382,258.506 344.35,258.99 345.542,258.99C347.552,258.99 349.99,257.724 352.857,255.192C355.723,252.661 358.646,249.087 361.624,244.471C364.602,239.855 367.283,234.457 369.665,228.277C371.303,223.958 372.997,219.565 374.747,215.098C376.497,210.631 378.265,206.331 380.052,202.199C381.839,198.066 383.57,194.381 385.245,191.142C386.92,187.903 388.521,185.334 390.048,183.436C391.574,181.537 392.933,180.588 394.124,180.588C394.72,180.588 395.241,180.83 395.688,181.314C396.134,181.798 396.358,182.412 396.358,183.156C396.358,184.348 395.743,186.377 394.515,189.243C393.286,192.11 391.686,195.535 389.713,199.518C387.739,203.502 385.673,207.839 383.514,212.529C381.355,217.22 379.289,221.985 377.316,226.825C375.343,231.664 373.742,236.337 372.513,240.841C371.285,245.346 370.67,249.459 370.67,253.182C370.67,255.267 370.782,256.83 371.005,257.873C371.229,258.915 371.973,259.436 373.239,259.436C374.803,259.436 376.627,258.766 378.712,257.426C380.796,256.086 382.881,254.187 384.966,251.73C387.051,249.273 388.875,246.332 390.438,242.907L391.779,243.912C390.364,247.71 388.428,251.116 385.971,254.131C383.514,257.147 380.89,259.529 378.097,261.279C375.305,263.029 372.644,263.904 370.112,263.904C367.357,263.904 365.44,262.992 364.36,261.168C363.281,259.343 362.741,257.463 362.741,255.527C362.741,254.262 362.927,252.586 363.299,250.502C363.672,248.417 364.193,246.109 364.863,243.577C362.48,247.523 359.949,251.079 357.268,254.243C354.588,257.408 351.963,259.883 349.395,261.67C346.826,263.457 344.388,264.351 342.079,264.351Z" style="fill:white;fill-rule:nonzero;"/>
                <path d="M393.677,266.249C391.369,266.249 389.415,265.486 387.814,263.96C386.213,262.433 385.413,260.107 385.413,256.979C385.413,254.299 386.008,251.414 387.2,248.324C388.391,245.234 390.029,242.181 392.114,239.166C394.198,236.15 396.562,233.396 399.206,230.901C401.849,228.407 404.641,226.415 407.582,224.926C410.523,223.437 413.445,222.692 416.349,222.692C419.253,222.692 421.673,223.456 423.609,224.982C425.544,226.508 426.512,228.537 426.512,231.069C426.512,232.93 426.01,234.196 425.005,234.866C423.999,235.536 422.678,235.871 421.04,235.871C421.189,235.276 421.319,234.624 421.431,233.917C421.542,233.209 421.598,232.558 421.598,231.962C421.598,230.25 421.189,228.779 420.37,227.551C419.551,226.322 418.136,225.708 416.126,225.708C414.041,225.708 411.919,226.434 409.76,227.886C407.601,229.338 405.516,231.274 403.505,233.693C401.495,236.113 399.708,238.738 398.145,241.567C396.581,244.396 395.353,247.188 394.459,249.943C393.566,252.698 393.119,255.155 393.119,257.314C393.119,260.218 394.124,261.67 396.134,261.67C397.847,261.67 399.708,260.87 401.719,259.269C403.729,257.668 405.795,255.621 407.917,253.126C410.039,250.632 412.068,248.045 414.004,245.364C415.94,242.684 417.652,240.227 419.141,237.993C419.439,237.546 419.625,237.323 419.7,237.323C420.146,237.398 420.723,237.546 421.431,237.77C422.138,237.993 422.752,238.291 423.273,238.663C423.795,239.036 424.055,239.52 424.055,240.115C424.055,240.785 423.72,241.697 423.05,242.851C422.38,244.005 421.635,245.327 420.816,246.816C419.997,248.305 419.253,249.813 418.583,251.339C417.913,252.866 417.578,254.299 417.578,255.639C417.578,256.756 417.875,257.854 418.471,258.934C419.067,260.013 420.035,260.553 421.375,260.553C423.385,260.553 426.028,259.083 429.304,256.142C432.58,253.201 435.894,248.789 439.244,242.907L440.361,244.024C438.798,248.045 436.787,251.581 434.33,254.634C431.873,257.687 429.249,260.069 426.456,261.782C423.664,263.494 420.928,264.351 418.248,264.351C415.493,264.351 413.464,263.531 412.161,261.893C410.858,260.255 410.206,258.469 410.206,256.533C410.206,256.086 410.244,255.583 410.318,255.025C410.393,254.467 410.467,253.889 410.542,253.294C407.34,257.612 404.418,260.851 401.774,263.01C399.131,265.17 396.432,266.249 393.677,266.249Z" style="fill:white;fill-rule:nonzero;"/>
                <path d="M473.755,264.574C470.553,264.574 468.282,263.587 466.942,261.614C465.602,259.641 464.931,257.24 464.931,254.411C464.931,252.103 465.304,249.72 466.048,247.263C466.793,244.806 467.779,242.498 469.008,240.339C470.236,238.179 471.614,236.43 473.14,235.089C474.667,233.749 476.212,233.079 477.775,233.079C478.147,233.079 478.538,233.135 478.948,233.247C479.357,233.358 479.748,233.489 480.12,233.637C479.45,234.233 478.65,235.331 477.719,236.932C476.789,238.533 475.914,240.357 475.095,242.405C474.276,244.452 473.587,246.481 473.029,248.491C472.47,250.502 472.191,252.214 472.191,253.629C472.191,255.863 472.563,257.482 473.308,258.487C474.052,259.492 475.02,259.995 476.212,259.995C477.775,259.995 479.637,259.157 481.796,257.482C483.955,255.807 486.077,253.666 488.162,251.06C486.077,249.348 484.458,247.095 483.303,244.303C482.149,241.511 481.572,238.663 481.572,235.759C481.572,233.302 482,230.994 482.857,228.835C483.713,226.676 484.96,224.945 486.598,223.642C488.236,222.339 490.209,221.687 492.517,221.687C495.57,221.687 497.618,222.506 498.66,224.144C499.702,225.782 500.224,227.83 500.224,230.287C500.224,233.191 499.516,236.411 498.102,239.948C496.687,243.484 494.9,246.891 492.741,250.167C494.081,250.911 495.496,251.284 496.985,251.284C498.176,251.284 499.516,251.042 501.005,250.558C502.494,250.074 503.965,249.236 505.417,248.045C506.869,246.853 508.041,245.253 508.935,243.242L510.275,244.359C508.786,247.859 506.683,250.334 503.965,251.786C501.247,253.238 498.66,253.964 496.203,253.964C495.235,253.964 494.304,253.871 493.411,253.685C492.517,253.499 491.661,253.219 490.842,252.847C488.311,256.198 485.537,258.99 482.522,261.223C479.506,263.457 476.584,264.574 473.755,264.574ZM490.172,248.156C492.033,245.402 493.578,242.516 494.807,239.501C496.035,236.485 496.65,233.637 496.65,230.957C496.65,228.798 496.333,227.216 495.7,226.211C495.067,225.205 494.267,224.703 493.299,224.703C491.81,224.703 490.284,225.782 488.72,227.942C487.157,230.101 486.375,232.818 486.375,236.095C486.375,238.254 486.691,240.432 487.324,242.628C487.957,244.824 488.906,246.667 490.172,248.156Z" style="fill:white;fill-rule:nonzero;"/>
                <path d="M516.083,264.351C512.881,264.351 510.592,263.252 509.214,261.056C507.837,258.859 507.148,256.123 507.148,252.847C507.148,249.273 507.818,245.029 509.158,240.115C510.498,235.201 512.267,230.026 514.463,224.591C516.66,219.156 519.061,213.851 521.667,208.676C524.273,203.502 526.879,198.792 529.485,194.548C532.091,190.304 534.492,186.916 536.688,184.385C538.885,181.853 540.616,180.588 541.882,180.588C542.701,180.588 543.371,181.053 543.892,181.984C544.413,182.914 544.823,184.031 545.12,185.334C545.418,186.637 545.567,187.81 545.567,188.852C545.567,190.863 545.065,193.487 544.059,196.726C543.054,199.965 541.64,203.576 539.815,207.559C537.991,211.543 535.832,215.563 533.338,219.621C530.843,223.679 528.126,227.569 525.185,231.292C522.244,235.015 519.135,238.217 515.859,240.897C515.413,242.907 515.059,244.862 514.798,246.76C514.538,248.659 514.407,250.465 514.407,252.177C514.407,255.081 514.817,257.24 515.636,258.655C516.455,260.069 517.683,260.777 519.321,260.777C521.332,260.777 523.323,259.883 525.297,258.096C527.27,256.309 529.131,254.057 530.881,251.339C532.63,248.622 534.138,245.811 535.404,242.907L537.079,243.801C534.101,250.129 530.862,255.137 527.363,258.822C523.863,262.508 520.103,264.351 516.083,264.351ZM516.864,237.1C519.47,234.494 522.002,231.497 524.459,228.109C526.916,224.721 529.205,221.203 531.327,217.555C533.449,213.907 535.329,210.37 536.967,206.945C538.606,203.52 539.871,200.449 540.765,197.731C541.658,195.014 542.105,192.91 542.105,191.421C542.105,190.676 542.012,190.193 541.826,189.969C541.64,189.746 541.472,189.634 541.323,189.634C540.728,189.634 539.704,190.583 538.252,192.482C536.8,194.381 535.106,196.931 533.17,200.132C531.234,203.334 529.261,206.982 527.251,211.077C525.241,215.172 523.323,219.454 521.499,223.921C519.675,228.388 518.13,232.781 516.864,237.1Z" style="fill:white;fill-rule:nonzero;"/>
                <path d="M542.663,266.137C539.462,266.137 537.005,265.207 535.292,263.345C533.58,261.484 532.724,258.729 532.724,255.081C532.724,251.805 533.338,247.765 534.566,242.963C535.795,238.161 537.34,233.228 539.201,228.165C538.457,228.016 537.749,227.886 537.079,227.774C536.409,227.662 535.776,227.495 535.181,227.272L535.181,225.261C535.776,225.336 536.484,225.41 537.303,225.485C538.122,225.559 539.052,225.633 540.095,225.708C541.658,221.687 543.333,217.797 545.12,214.037C546.907,210.277 548.676,206.926 550.425,203.985C552.175,201.044 553.85,198.699 555.451,196.949C557.052,195.2 558.411,194.325 559.528,194.325C560.123,194.325 560.663,194.53 561.147,194.939C561.631,195.349 561.873,195.963 561.873,196.782C561.873,198.048 561.091,200.114 559.528,202.98C557.964,205.847 556.028,209.253 553.72,213.199C551.412,217.146 549.178,221.427 547.019,226.043L551.151,226.043C553.608,226.043 556.196,226.006 558.913,225.931C561.631,225.857 564.367,225.671 567.122,225.373L567.122,227.383C563.027,227.83 559.36,228.165 556.121,228.388C552.882,228.612 549.997,228.723 547.466,228.723L545.791,228.723C544.078,232.67 542.626,236.727 541.435,240.897C540.244,245.066 539.648,249.124 539.648,253.07C539.648,256.272 540.132,258.562 541.1,259.939C542.068,261.316 543.669,262.005 545.902,262.005C549.774,262.005 553.571,260.293 557.294,256.868C561.017,253.443 564.293,248.789 567.122,242.907L568.574,244.024C566.787,248.194 564.535,251.954 561.817,255.304C559.099,258.655 556.103,261.298 552.827,263.234C549.551,265.17 546.163,266.137 542.663,266.137Z" style="fill:white;fill-rule:nonzero;"/>
                <path d="M584.321,263.904C581.79,263.904 579.798,263.234 578.346,261.893C576.894,260.553 576.168,258.804 576.168,256.644C576.168,254.411 576.69,252.065 577.732,249.608C578.774,247.151 579.798,244.713 580.803,242.293C581.808,239.873 582.311,237.695 582.311,235.759C582.311,233.377 581.622,231.609 580.245,230.455C578.867,229.3 577.471,228.239 576.057,227.272C574.344,231.664 572.557,235.834 570.696,239.78C568.835,243.726 567.308,246.704 566.117,248.715L565.112,246.816C566.154,244.88 567.513,242.051 569.188,238.328C570.863,234.605 572.52,230.361 574.158,225.596C573.414,224.852 573.041,223.958 573.041,222.916C573.041,220.682 573.674,218.858 574.94,217.443C576.206,216.029 577.136,215.321 577.732,215.321C578.551,215.321 579.016,215.675 579.128,216.382C579.24,217.09 579.296,217.629 579.296,218.002C579.296,218.374 579.091,219.1 578.681,220.18C578.272,221.259 578.067,221.911 578.067,222.134C578.067,223.176 578.644,224.126 579.798,224.982C580.952,225.838 582.274,226.806 583.763,227.886C585.252,228.965 586.574,230.268 587.728,231.795C588.882,233.321 589.459,235.276 589.459,237.658C589.459,239.892 588.993,242.163 588.063,244.471C587.132,246.779 586.201,248.975 585.271,251.06C584.34,253.145 583.875,254.969 583.875,256.533C583.875,257.873 584.21,258.766 584.88,259.213C585.55,259.66 586.332,259.883 587.225,259.883C589.012,259.883 590.855,259.325 592.754,258.208C594.652,257.091 596.495,255.676 598.282,253.964C600.069,252.251 601.67,250.446 603.084,248.547C604.499,246.649 605.541,244.88 606.211,243.242L607.663,244.359C606.249,247.486 604.313,250.558 601.856,253.573C599.399,256.588 596.662,259.064 593.647,261C590.632,262.936 587.523,263.904 584.321,263.904Z" style="fill:white;fill-rule:nonzero;"/>
                <path d="M615.928,265.914C611.386,265.914 607.98,264.667 605.709,262.173C603.438,259.678 602.302,256.607 602.302,252.959C602.302,249.608 603.14,246.072 604.815,242.349C606.491,238.626 608.724,235.127 611.516,231.851C614.308,228.574 617.38,225.913 620.73,223.865C624.081,221.818 627.394,220.794 630.67,220.794C632.383,220.794 633.965,221.241 635.417,222.134C636.869,223.028 637.595,224.852 637.595,227.607C637.595,230.436 636.757,233.098 635.082,235.592C633.406,238.086 631.21,240.301 628.492,242.237C625.775,244.173 622.796,245.755 619.558,246.984C616.319,248.212 613.099,248.975 609.897,249.273C609.748,250.018 609.636,250.725 609.562,251.395C609.487,252.065 609.45,252.698 609.45,253.294C609.45,254.411 609.581,255.527 609.841,256.644C610.102,257.761 610.567,258.785 611.237,259.716C611.907,260.646 612.819,261.372 613.973,261.893C615.127,262.415 616.561,262.675 618.273,262.675C621.475,262.675 624.639,261.763 627.766,259.939C630.893,258.115 633.797,255.714 636.478,252.735C639.158,249.757 641.429,246.481 643.29,242.907L644.631,243.912C642.62,248.38 640.07,252.251 636.98,255.527C633.89,258.804 630.54,261.354 626.929,263.178C623.318,265.002 619.651,265.914 615.928,265.914ZM610.455,247.151C612.466,246.481 614.737,245.495 617.268,244.192C619.8,242.889 622.238,241.344 624.583,239.557C626.929,237.77 628.865,235.797 630.391,233.637C631.917,231.478 632.68,229.207 632.68,226.825C632.68,226.006 632.532,225.373 632.234,224.926C631.936,224.479 631.303,224.256 630.335,224.256C628.548,224.256 626.65,224.945 624.639,226.322C622.629,227.7 620.693,229.505 618.832,231.739C616.97,233.973 615.295,236.43 613.806,239.11C612.317,241.79 611.2,244.471 610.455,247.151Z" style="fill:white;fill-rule:nonzero;"/>
            </g>
            <g transform="matrix(0.58943,0,0,0.58943,112.826,884.225)">
                <path d="M340.851,266.249C338.543,266.249 336.588,265.486 334.988,263.96C333.387,262.433 332.586,260.107 332.586,256.979C332.586,254.299 333.182,251.414 334.373,248.324C335.565,245.234 337.203,242.181 339.287,239.166C341.372,236.15 343.736,233.396 346.379,230.901C349.022,228.407 351.815,226.415 354.756,224.926C357.697,223.437 360.619,222.692 363.523,222.692C366.426,222.692 368.846,223.456 370.782,224.982C372.718,226.508 373.686,228.537 373.686,231.069C373.686,232.93 373.183,234.196 372.178,234.866C371.173,235.536 369.851,235.871 368.213,235.871C368.362,235.276 368.493,234.624 368.604,233.917C368.716,233.209 368.772,232.558 368.772,231.962C368.772,230.25 368.362,228.779 367.543,227.551C366.724,226.322 365.31,225.708 363.299,225.708C361.215,225.708 359.093,226.434 356.933,227.886C354.774,229.338 352.689,231.274 350.679,233.693C348.669,236.113 346.882,238.738 345.318,241.567C343.755,244.396 342.526,247.188 341.633,249.943C340.739,252.698 340.292,255.155 340.292,257.314C340.292,260.218 341.298,261.67 343.308,261.67C345.02,261.67 346.882,260.87 348.892,259.269C350.902,257.668 352.969,255.621 355.091,253.126C357.213,250.632 359.241,248.045 361.177,245.364C363.113,242.684 364.826,240.227 366.315,237.993C366.613,237.546 366.799,237.323 366.873,237.323C367.32,237.398 367.897,237.546 368.604,237.77C369.312,237.993 369.926,238.291 370.447,238.663C370.968,239.036 371.229,239.52 371.229,240.115C371.229,240.785 370.894,241.697 370.224,242.851C369.554,244.005 368.809,245.327 367.99,246.816C367.171,248.305 366.426,249.813 365.756,251.339C365.086,252.866 364.751,254.299 364.751,255.639C364.751,256.756 365.049,257.854 365.645,258.934C366.24,260.013 367.208,260.553 368.548,260.553C370.559,260.553 373.202,259.083 376.478,256.142C379.754,253.201 383.067,248.789 386.418,242.907L387.535,244.024C385.971,248.045 383.961,251.581 381.504,254.634C379.047,257.687 376.422,260.069 373.63,261.782C370.838,263.494 368.102,264.351 365.421,264.351C362.666,264.351 360.638,263.531 359.335,261.893C358.032,260.255 357.38,258.469 357.38,256.533C357.38,256.086 357.417,255.583 357.492,255.025C357.566,254.467 357.641,253.889 357.715,253.294C354.514,257.612 351.591,260.851 348.948,263.01C346.305,265.17 343.606,266.249 340.851,266.249Z" style="fill:white;fill-rule:nonzero;"/>
                <path d="M393.454,264.351C390.252,264.351 387.963,263.252 386.585,261.056C385.208,258.859 384.519,256.123 384.519,252.847C384.519,249.273 385.189,245.029 386.53,240.115C387.87,235.201 389.638,230.026 391.835,224.591C394.031,219.156 396.432,213.851 399.038,208.676C401.644,203.502 404.25,198.792 406.856,194.548C409.462,190.304 411.863,186.916 414.06,184.385C416.256,181.853 417.987,180.588 419.253,180.588C420.072,180.588 420.742,181.053 421.263,181.984C421.784,182.914 422.194,184.031 422.492,185.334C422.79,186.637 422.938,187.81 422.938,188.852C422.938,190.863 422.436,193.487 421.431,196.726C420.426,199.965 419.011,203.576 417.187,207.559C415.363,211.543 413.203,215.563 410.709,219.621C408.215,223.679 405.497,227.569 402.556,231.292C399.615,235.015 396.507,238.217 393.231,240.897C392.784,242.907 392.43,244.862 392.17,246.76C391.909,248.659 391.779,250.465 391.779,252.177C391.779,255.081 392.188,257.24 393.007,258.655C393.826,260.069 395.055,260.777 396.693,260.777C398.703,260.777 400.695,259.883 402.668,258.096C404.641,256.309 406.502,254.057 408.252,251.339C410.002,248.622 411.509,245.811 412.775,242.907L414.45,243.801C411.472,250.129 408.233,255.137 404.734,258.822C401.235,262.508 397.475,264.351 393.454,264.351ZM394.236,237.1C396.842,234.494 399.373,231.497 401.83,228.109C404.287,224.721 406.577,221.203 408.699,217.555C410.821,213.907 412.701,210.37 414.339,206.945C415.977,203.52 417.243,200.449 418.136,197.731C419.029,195.014 419.476,192.91 419.476,191.421C419.476,190.676 419.383,190.193 419.197,189.969C419.011,189.746 418.843,189.634 418.694,189.634C418.099,189.634 417.075,190.583 415.623,192.482C414.171,194.381 412.477,196.931 410.542,200.132C408.606,203.334 406.633,206.982 404.622,211.077C402.612,215.172 400.695,219.454 398.871,223.921C397.046,228.388 395.501,232.781 394.236,237.1Z" style="fill:white;fill-rule:nonzero;"/>
                <path d="M449.072,266.137C445.871,266.137 443.414,265.207 441.701,263.345C439.989,261.484 439.133,258.729 439.133,255.081C439.133,251.805 439.747,247.765 440.975,242.963C442.204,238.161 443.749,233.228 445.61,228.165C444.866,228.016 444.158,227.886 443.488,227.774C442.818,227.662 442.185,227.495 441.59,227.272L441.59,225.261C442.185,225.336 442.893,225.41 443.712,225.485C444.531,225.559 445.461,225.633 446.504,225.708C448.067,221.687 449.743,217.797 451.529,214.037C453.316,210.277 455.085,206.926 456.834,203.985C458.584,201.044 460.259,198.699 461.86,196.949C463.461,195.2 464.82,194.325 465.937,194.325C466.532,194.325 467.072,194.53 467.556,194.939C468.04,195.349 468.282,195.963 468.282,196.782C468.282,198.048 467.5,200.114 465.937,202.98C464.373,205.847 462.437,209.253 460.129,213.199C457.821,217.146 455.587,221.427 453.428,226.043L457.56,226.043C460.017,226.043 462.605,226.006 465.322,225.931C468.04,225.857 470.776,225.671 473.531,225.373L473.531,227.383C469.436,227.83 465.769,228.165 462.53,228.388C459.291,228.612 456.406,228.723 453.875,228.723L452.2,228.723C450.487,232.67 449.035,236.727 447.844,240.897C446.653,245.066 446.057,249.124 446.057,253.07C446.057,256.272 446.541,258.562 447.509,259.939C448.477,261.316 450.078,262.005 452.311,262.005C456.183,262.005 459.98,260.293 463.703,256.868C467.426,253.443 470.702,248.789 473.531,242.907L474.983,244.024C473.196,248.194 470.944,251.954 468.226,255.304C465.509,258.655 462.512,261.298 459.236,263.234C455.96,265.17 452.572,266.137 449.072,266.137Z" style="fill:white;fill-rule:nonzero;"/>
                <path d="M479.785,264.351C477.254,264.351 475.225,263.215 473.699,260.944C472.172,258.673 471.409,256.049 471.409,253.07C471.409,250.911 471.763,248.417 472.47,245.588C473.177,242.758 474.052,239.966 475.095,237.211C476.137,234.457 477.217,232.186 478.334,230.399C479.45,228.612 480.418,227.718 481.237,227.718C481.61,227.718 482.242,227.923 483.136,228.333C484.029,228.742 484.774,229.282 485.37,229.952C484.551,231.218 483.545,233.154 482.354,235.759C481.163,238.365 480.12,241.158 479.227,244.136C478.334,247.114 477.887,249.869 477.887,252.4C477.887,252.996 477.961,253.908 478.11,255.137C478.259,256.365 478.631,257.463 479.227,258.431C479.823,259.399 480.716,259.883 481.907,259.883C483.322,259.883 484.774,259.157 486.263,257.705C487.752,256.253 489.26,254.373 490.786,252.065C492.313,249.757 493.783,247.263 495.198,244.582C496.612,241.902 497.934,239.333 499.163,236.876C500.391,234.419 501.415,232.372 502.234,230.734C502.681,230.808 503.332,230.957 504.188,231.18C505.045,231.404 505.826,231.702 506.534,232.074C507.241,232.446 507.595,232.967 507.595,233.637C507.595,233.935 507.222,234.922 506.478,236.597C505.733,238.272 504.858,240.32 503.853,242.74C502.848,245.16 501.973,247.598 501.229,250.055C500.484,252.512 500.112,254.671 500.112,256.533C500.112,257.873 500.391,258.952 500.949,259.771C501.508,260.59 502.457,261 503.797,261C505.361,261 507.26,260.293 509.493,258.878C511.727,257.463 513.998,255.397 516.306,252.68C518.614,249.962 520.662,246.704 522.449,242.907L523.9,243.912C522.337,247.933 520.289,251.488 517.758,254.578C515.226,257.668 512.546,260.069 509.717,261.782C506.887,263.494 504.132,264.351 501.452,264.351C499.516,264.351 497.971,263.978 496.817,263.234C495.663,262.489 494.844,261.484 494.36,260.218C493.876,258.952 493.634,257.575 493.634,256.086C493.634,255.192 493.709,254.28 493.858,253.35C494.006,252.419 494.193,251.47 494.416,250.502C493.076,252.959 491.624,255.248 490.06,257.37C488.497,259.492 486.859,261.186 485.146,262.452C483.434,263.718 481.647,264.351 479.785,264.351Z" style="fill:white;fill-rule:nonzero;"/>
                <path d="M528.033,264.574C524.831,264.574 522.56,263.587 521.22,261.614C519.88,259.641 519.21,257.24 519.21,254.411C519.21,252.103 519.582,249.72 520.327,247.263C521.071,244.806 522.058,242.498 523.286,240.339C524.515,238.179 525.892,236.43 527.419,235.089C528.945,233.749 530.49,233.079 532.053,233.079C532.426,233.079 532.817,233.135 533.226,233.247C533.636,233.358 534.026,233.489 534.399,233.637C533.729,234.233 532.928,235.331 531.998,236.932C531.067,238.533 530.192,240.357 529.373,242.405C528.554,244.452 527.865,246.481 527.307,248.491C526.748,250.502 526.469,252.214 526.469,253.629C526.469,255.863 526.841,257.482 527.586,258.487C528.331,259.492 529.299,259.995 530.49,259.995C532.053,259.995 533.915,259.157 536.074,257.482C538.233,255.807 540.355,253.666 542.44,251.06C540.355,249.348 538.736,247.095 537.582,244.303C536.428,241.511 535.851,238.663 535.851,235.759C535.851,233.302 536.279,230.994 537.135,228.835C537.991,226.676 539.238,224.945 540.876,223.642C542.514,222.339 544.488,221.687 546.796,221.687C549.848,221.687 551.896,222.506 552.938,224.144C553.981,225.782 554.502,227.83 554.502,230.287C554.502,233.191 553.795,236.411 552.38,239.948C550.965,243.484 549.178,246.891 547.019,250.167C548.359,250.911 549.774,251.284 551.263,251.284C552.454,251.284 553.795,251.042 555.284,250.558C556.773,250.074 558.243,249.236 559.695,248.045C561.147,246.853 562.32,245.253 563.213,243.242L564.553,244.359C563.064,247.859 560.961,250.334 558.243,251.786C555.526,253.238 552.938,253.964 550.481,253.964C549.513,253.964 548.583,253.871 547.689,253.685C546.796,253.499 545.939,253.219 545.12,252.847C542.589,256.198 539.815,258.99 536.8,261.223C533.785,263.457 530.862,264.574 528.033,264.574ZM544.45,248.156C546.312,245.402 547.857,242.516 549.085,239.501C550.314,236.485 550.928,233.637 550.928,230.957C550.928,228.798 550.612,227.216 549.979,226.211C549.346,225.205 548.545,224.703 547.577,224.703C546.088,224.703 544.562,225.782 542.998,227.942C541.435,230.101 540.653,232.818 540.653,236.095C540.653,238.254 540.969,240.432 541.602,242.628C542.235,244.824 543.185,246.667 544.45,248.156Z" style="fill:white;fill-rule:nonzero;"/>
                <path d="M601.856,266.696C598.356,266.696 595.583,265.933 593.535,264.406C591.488,262.88 590.036,261 589.18,258.766C588.323,256.533 587.895,254.299 587.895,252.065C587.895,249.832 588.193,248.119 588.789,246.928C589.384,245.737 590.11,244.843 590.967,244.247C591.823,243.652 592.642,243.205 593.424,242.907C594.205,242.609 594.745,242.312 595.043,242.014C597.277,239.557 599.324,236.988 601.186,234.308C603.047,231.627 604.685,228.798 606.1,225.82L606.1,224.479C606.1,221.725 606.565,219.77 607.496,218.616C608.426,217.462 609.413,216.885 610.455,216.885C611.051,216.885 611.498,217.034 611.796,217.332C612.093,217.629 612.242,217.965 612.242,218.337C612.242,218.709 612.131,219.305 611.907,220.124C611.684,220.943 611.572,221.985 611.572,223.251C611.572,225.708 612.056,228.37 613.024,231.236C613.992,234.103 614.96,237.118 615.928,240.283C616.896,243.447 617.38,246.742 617.38,250.167C617.38,251.135 617.324,252.084 617.212,253.015C617.101,253.945 616.933,254.82 616.71,255.639C619.316,255.192 621.773,254.02 624.081,252.121C626.389,250.223 628.623,247.188 630.782,243.019L631.787,244.136C630.372,248.231 628.25,251.339 625.421,253.461C622.592,255.583 619.502,256.905 616.151,257.426C614.96,260.628 613.08,262.973 610.511,264.462C607.942,265.951 605.057,266.696 601.856,266.696ZM602.079,262.787C602.973,262.787 604.164,262.489 605.653,261.893C607.142,261.298 608.296,259.771 609.115,257.314C605.988,256.719 603.215,255.49 600.795,253.629C598.375,251.767 596.569,249.906 595.378,248.045C593.74,248.119 592.921,249.422 592.921,251.954C592.921,254.634 593.721,257.11 595.322,259.381C596.923,261.651 599.175,262.787 602.079,262.787ZM609.674,255.527C609.822,254.783 609.934,254.001 610.009,253.182C610.083,252.363 610.12,251.395 610.12,250.278C610.12,246.779 609.692,243.298 608.836,239.836C607.98,236.374 607.254,233.116 606.658,230.064C604.946,232.893 603.14,235.592 601.241,238.161C599.343,240.729 597.537,242.87 595.825,244.582C596.942,246.965 598.673,249.199 601.018,251.284C603.363,253.368 606.249,254.783 609.674,255.527Z" style="fill:white;fill-rule:nonzero;"/>
                <path d="M640.722,265.914C636.18,265.914 632.773,264.667 630.503,262.173C628.232,259.678 627.096,256.607 627.096,252.959C627.096,249.608 627.934,246.072 629.609,242.349C631.284,238.626 633.518,235.127 636.31,231.851C639.102,228.574 642.174,225.913 645.524,223.865C648.875,221.818 652.188,220.794 655.464,220.794C657.176,220.794 658.759,221.241 660.21,222.134C661.662,223.028 662.388,224.852 662.388,227.607C662.388,230.436 661.551,233.098 659.875,235.592C658.2,238.086 656.004,240.301 653.286,242.237C650.568,244.173 647.59,245.755 644.351,246.984C641.113,248.212 637.892,248.975 634.691,249.273C634.542,250.018 634.43,250.725 634.356,251.395C634.281,252.065 634.244,252.698 634.244,253.294C634.244,254.411 634.374,255.527 634.635,256.644C634.895,257.761 635.361,258.785 636.031,259.716C636.701,260.646 637.613,261.372 638.767,261.893C639.921,262.415 641.355,262.675 643.067,262.675C646.269,262.675 649.433,261.763 652.56,259.939C655.687,258.115 658.591,255.714 661.271,252.735C663.952,249.757 666.223,246.481 668.084,242.907L669.424,243.912C667.414,248.38 664.864,252.251 661.774,255.527C658.684,258.804 655.334,261.354 651.722,263.178C648.111,265.002 644.444,265.914 640.722,265.914ZM635.249,247.151C637.259,246.481 639.53,245.495 642.062,244.192C644.593,242.889 647.032,241.344 649.377,239.557C651.722,237.77 653.658,235.797 655.185,233.637C656.711,231.478 657.474,229.207 657.474,226.825C657.474,226.006 657.325,225.373 657.027,224.926C656.73,224.479 656.097,224.256 655.129,224.256C653.342,224.256 651.443,224.945 649.433,226.322C647.423,227.7 645.487,229.505 643.625,231.739C641.764,233.973 640.089,236.43 638.6,239.11C637.111,241.79 635.994,244.471 635.249,247.151Z" style="fill:white;fill-rule:nonzero;"/>
                <path d="M685.172,263.904C682.64,263.904 680.649,263.234 679.197,261.893C677.745,260.553 677.019,258.804 677.019,256.644C677.019,254.411 677.54,252.065 678.582,249.608C679.625,247.151 680.649,244.713 681.654,242.293C682.659,239.873 683.161,237.695 683.161,235.759C683.161,233.377 682.473,231.609 681.095,230.455C679.718,229.3 678.322,228.239 676.907,227.272C675.195,231.664 673.408,235.834 671.546,239.78C669.685,243.726 668.159,246.704 666.967,248.715L665.962,246.816C667.005,244.88 668.363,242.051 670.039,238.328C671.714,234.605 673.371,230.361 675.009,225.596C674.264,224.852 673.892,223.958 673.892,222.916C673.892,220.682 674.525,218.858 675.79,217.443C677.056,216.029 677.987,215.321 678.582,215.321C679.401,215.321 679.867,215.675 679.978,216.382C680.09,217.09 680.146,217.629 680.146,218.002C680.146,218.374 679.941,219.1 679.532,220.18C679.122,221.259 678.917,221.911 678.917,222.134C678.917,223.176 679.495,224.126 680.649,224.982C681.803,225.838 683.124,226.806 684.613,227.886C686.102,228.965 687.424,230.268 688.578,231.795C689.732,233.321 690.309,235.276 690.309,237.658C690.309,239.892 689.844,242.163 688.913,244.471C687.982,246.779 687.052,248.975 686.121,251.06C685.19,253.145 684.725,254.969 684.725,256.533C684.725,257.873 685.06,258.766 685.73,259.213C686.4,259.66 687.182,259.883 688.076,259.883C689.862,259.883 691.705,259.325 693.604,258.208C695.503,257.091 697.345,255.676 699.132,253.964C700.919,252.251 702.52,250.446 703.935,248.547C705.349,246.649 706.392,244.88 707.062,243.242L708.514,244.359C707.099,247.486 705.163,250.558 702.706,253.573C700.249,256.588 697.513,259.064 694.497,261C691.482,262.936 688.373,263.904 685.172,263.904Z" style="fill:white;fill-rule:nonzero;"/>
                <path d="M711.976,265.356C709.668,265.356 708.067,264.22 707.173,261.949C706.28,259.678 705.833,256.719 705.833,253.07C705.833,252.922 705.87,251.749 705.945,249.552C706.019,247.356 706.206,243.652 706.503,238.44C706.652,236.43 706.876,235.052 707.173,234.308C707.471,233.563 708.439,233.191 710.077,233.191C711.343,233.191 712.143,233.433 712.478,233.917C712.813,234.401 712.981,235.35 712.981,236.765C712.981,239.222 712.813,242.107 712.478,245.42C712.143,248.733 711.976,251.842 711.976,254.746C711.976,256.905 712.162,258.487 712.534,259.492C712.907,260.497 713.577,261 714.545,261C715.885,261 717.374,260.237 719.012,258.71C720.65,257.184 722.325,255.174 724.038,252.68C725.75,250.185 727.37,247.523 728.896,244.694C730.422,241.865 731.781,239.147 732.972,236.541C733.121,231.478 733.661,228.109 734.592,226.434C735.523,224.759 736.695,223.921 738.11,223.921C739.525,223.921 740.548,224.424 741.181,225.429C741.814,226.434 742.13,227.346 742.13,228.165C742.13,229.133 741.814,230.138 741.181,231.18C740.548,232.223 739.897,233.637 739.227,235.424C738.557,237.211 738.222,239.78 738.222,243.131C738.222,244.322 738.333,245.588 738.557,246.928C738.78,248.268 739.264,249.385 740.008,250.278C740.753,251.172 741.907,251.619 743.471,251.619C745.034,251.619 746.542,251.004 747.994,249.776C749.446,248.547 750.879,246.407 752.294,243.354L753.746,244.471C752.108,248.194 750.302,250.688 748.329,251.954C746.356,253.219 744.476,253.852 742.689,253.852C740.232,253.852 738.184,252.959 736.546,251.172C734.908,249.385 733.829,246.667 733.307,243.019C731.521,246.667 729.417,250.185 726.997,253.573C724.578,256.961 722.065,259.771 719.459,262.005C716.853,264.239 714.358,265.356 711.976,265.356Z" style="fill:white;fill-rule:nonzero;"/>
                <path d="M758.213,263.904C755.309,263.904 753.15,262.992 751.735,261.168C750.321,259.343 749.613,257.128 749.613,254.522C749.613,252.81 749.93,250.651 750.563,248.045C751.195,245.439 752.033,242.702 753.075,239.836C754.118,236.969 755.328,234.27 756.705,231.739C758.083,229.207 759.553,227.141 761.117,225.54C762.68,223.94 764.207,223.139 765.696,223.139C766.366,223.139 766.943,223.344 767.427,223.753C767.911,224.163 768.153,224.777 768.153,225.596C768.153,226.49 767.576,227.942 766.422,229.952C765.268,231.962 763.909,234.27 762.345,236.876C760.782,239.482 759.423,242.219 758.269,245.085C757.115,247.952 756.538,250.688 756.538,253.294C756.538,255.974 756.984,257.761 757.878,258.655C758.771,259.548 760.149,259.995 762.01,259.995C764.542,259.995 767.241,258.729 770.107,256.198C772.974,253.666 776.008,249.236 779.209,242.907L780.215,244.024C778.055,250.427 774.947,255.341 770.889,258.766C766.831,262.191 762.606,263.904 758.213,263.904ZM771.615,212.753C770.424,212.753 769.363,212.455 768.432,211.859C767.501,211.264 767.036,210.333 767.036,209.067C767.036,207.504 767.948,206.145 769.772,204.991C771.596,203.837 773.402,203.26 775.189,203.26C776.306,203.26 777.199,203.52 777.869,204.041C778.539,204.562 778.874,205.456 778.874,206.722C778.874,208.136 778.111,209.495 776.585,210.798C775.059,212.101 773.402,212.753 771.615,212.753Z" style="fill:white;fill-rule:nonzero;"/>
                <path d="M776.529,292.271C774.221,292.271 772.415,291.843 771.112,290.987C769.809,290.131 769.158,288.66 769.158,286.576C769.158,284.193 769.958,281.978 771.559,279.93C773.16,277.883 775.301,275.928 777.981,274.067C780.661,272.206 783.621,270.326 786.86,268.427C790.099,266.528 793.319,264.499 796.52,262.34C796.52,259.66 795.962,257.203 794.845,254.969C793.728,252.735 791.718,250.465 788.814,248.156C791.42,247.412 793.635,246.109 795.459,244.247C797.284,242.386 798.661,240.32 799.592,238.049C800.522,235.778 800.988,233.675 800.988,231.739C800.988,230.026 800.634,228.612 799.927,227.495C799.219,226.378 798.121,225.82 796.632,225.82C794.175,225.82 791.979,226.75 790.043,228.612C788.107,230.473 786.32,232.93 784.682,235.983C783.044,239.036 781.369,242.386 779.656,246.034L778.316,244.918C779.954,240.45 781.648,236.467 783.398,232.967C785.147,229.468 787.213,226.694 789.596,224.647C791.979,222.599 794.845,221.576 798.196,221.576C800.727,221.576 802.905,222.395 804.729,224.033C806.553,225.671 807.465,227.904 807.465,230.734C807.465,233.414 806.833,235.908 805.567,238.217C804.301,240.525 802.663,242.554 800.653,244.303C798.642,246.053 796.52,247.486 794.287,248.603C796.223,250.092 797.842,251.674 799.145,253.35C800.448,255.025 801.435,256.793 802.105,258.655C804.934,256.495 807.447,254.131 809.643,251.563C811.84,248.994 813.459,246.109 814.502,242.907L815.73,244.247C814.688,247.598 813.012,250.632 810.704,253.35C808.396,256.067 805.753,258.543 802.775,260.777C802.924,261.298 803.035,261.893 803.11,262.564C803.184,263.234 803.221,263.867 803.221,264.462C803.221,267.813 802.477,271.145 800.988,274.458C799.499,277.771 797.488,280.768 794.957,283.448C792.425,286.129 789.577,288.269 786.413,289.87C783.249,291.471 779.954,292.271 776.529,292.271ZM775.747,289.033C777.087,289.033 778.837,288.493 780.996,287.413C783.156,286.334 785.352,284.77 787.586,282.722C789.819,280.675 791.755,278.162 793.393,275.184C795.031,272.206 796.036,268.781 796.409,264.909C793.431,266.77 790.508,268.539 787.642,270.214C784.775,271.889 782.188,273.527 779.88,275.128C777.571,276.729 775.729,278.367 774.351,280.042C772.974,281.717 772.285,283.486 772.285,285.347C772.285,286.613 772.62,287.543 773.29,288.139C773.96,288.735 774.779,289.033 775.747,289.033Z" style="fill:white;fill-rule:nonzero;"/>
                <path d="M820.532,263.904C817.629,263.904 815.469,262.992 814.055,261.168C812.64,259.343 811.933,257.128 811.933,254.522C811.933,252.81 812.249,250.651 812.882,248.045C813.515,245.439 814.353,242.702 815.395,239.836C816.437,236.969 817.647,234.27 819.025,231.739C820.402,229.207 821.873,227.141 823.436,225.54C825,223.94 826.526,223.139 828.015,223.139C828.685,223.139 829.262,223.344 829.746,223.753C830.23,224.163 830.472,224.777 830.472,225.596C830.472,226.49 829.895,227.942 828.741,229.952C827.587,231.962 826.228,234.27 824.665,236.876C823.101,239.482 821.742,242.219 820.588,245.085C819.434,247.952 818.857,250.688 818.857,253.294C818.857,255.974 819.304,257.761 820.197,258.655C821.091,259.548 822.468,259.995 824.33,259.995C826.861,259.995 829.56,258.729 832.427,256.198C835.293,253.666 838.327,249.236 841.529,242.907L842.534,244.024C840.375,250.427 837.266,255.341 833.209,258.766C829.151,262.191 824.925,263.904 820.532,263.904ZM833.934,212.753C832.743,212.753 831.682,212.455 830.751,211.859C829.821,211.264 829.355,210.333 829.355,209.067C829.355,207.504 830.268,206.145 832.092,204.991C833.916,203.837 835.721,203.26 837.508,203.26C838.625,203.26 839.519,203.52 840.189,204.041C840.859,204.562 841.194,205.456 841.194,206.722C841.194,208.136 840.431,209.495 838.904,210.798C837.378,212.101 835.721,212.753 833.934,212.753Z" style="fill:white;fill-rule:nonzero;"/>
                <path d="M847.113,264.574C843.912,264.574 841.641,263.587 840.3,261.614C838.96,259.641 838.29,257.24 838.29,254.411C838.29,252.103 838.662,249.72 839.407,247.263C840.152,244.806 841.138,242.498 842.367,240.339C843.595,238.179 844.973,236.43 846.499,235.089C848.025,233.749 849.57,233.079 851.134,233.079C851.506,233.079 851.897,233.135 852.306,233.247C852.716,233.358 853.107,233.489 853.479,233.637C852.809,234.233 852.009,235.331 851.078,236.932C850.147,238.533 849.272,240.357 848.453,242.405C847.634,244.452 846.946,246.481 846.387,248.491C845.829,250.502 845.55,252.214 845.55,253.629C845.55,255.863 845.922,257.482 846.666,258.487C847.411,259.492 848.379,259.995 849.57,259.995C851.134,259.995 852.995,259.157 855.154,257.482C857.314,255.807 859.436,253.666 861.52,251.06C859.436,249.348 857.816,247.095 856.662,244.303C855.508,241.511 854.931,238.663 854.931,235.759C854.931,233.302 855.359,230.994 856.215,228.835C857.072,226.676 858.319,224.945 859.957,223.642C861.595,222.339 863.568,221.687 865.876,221.687C868.929,221.687 870.976,222.506 872.019,224.144C873.061,225.782 873.582,227.83 873.582,230.287C873.582,233.191 872.875,236.411 871.46,239.948C870.046,243.484 868.259,246.891 866.099,250.167C867.44,250.911 868.854,251.284 870.343,251.284C871.535,251.284 872.875,251.042 874.364,250.558C875.853,250.074 877.324,249.236 878.775,248.045C880.227,246.853 881.4,245.253 882.294,243.242L883.634,244.359C882.145,247.859 880.041,250.334 877.324,251.786C874.606,253.238 872.019,253.964 869.562,253.964C868.594,253.964 867.663,253.871 866.769,253.685C865.876,253.499 865.02,253.219 864.201,252.847C861.669,256.198 858.896,258.99 855.88,261.223C852.865,263.457 849.942,264.574 847.113,264.574ZM863.531,248.156C865.392,245.402 866.937,242.516 868.166,239.501C869.394,236.485 870.008,233.637 870.008,230.957C870.008,228.798 869.692,227.216 869.059,226.211C868.426,225.205 867.626,224.703 866.658,224.703C865.169,224.703 863.642,225.782 862.079,227.942C860.515,230.101 859.733,232.818 859.733,236.095C859.733,238.254 860.05,240.432 860.683,242.628C861.316,244.824 862.265,246.667 863.531,248.156Z" style="fill:white;fill-rule:nonzero;"/>
            </g>
            <g transform="matrix(0.381121,0,0,0.36602,289.45,809.578)">
                <path d="M335.326,261L366.029,181.055L377.426,181.055L410.146,261L398.094,261L388.769,236.787L355.34,236.787L346.56,261L335.326,261ZM358.394,228.171L385.497,228.171L377.153,206.031C374.608,199.305 372.718,193.779 371.482,189.453C370.464,194.579 369.028,199.668 367.174,204.722L358.394,228.171Z" style="fill:white;fill-rule:nonzero;"/>
                <path d="M424.074,261L424.074,181.055L434.926,181.055L476.916,243.822L476.916,181.055L487.059,181.055L487.059,261L476.207,261L434.217,198.178L434.217,261L424.074,261Z" style="fill:white;fill-rule:nonzero;"/>
                <path d="M510.312,261L510.312,181.055L521.164,181.055L563.155,243.822L563.155,181.055L573.298,181.055L573.298,261L562.446,261L520.455,198.178L520.455,261L510.312,261Z" style="fill:white;fill-rule:nonzero;"/>
                <rect x="598.459" y="181.055" width="10.579" height="79.945" style="fill:white;fill-rule:nonzero;"/>
            </g>
        </g>
    </g>
    <defs>
        <radialGradient id="_Radial1" cx="0" cy="0" r="1" gradientUnits="userSpaceOnUse" gradientTransform="matrix(-197.654,345.352,-345.352,-197.654,209.569,279.96)"><stop offset="0" style="stop-color:rgb(254,219,55);stop-opacity:1"/><stop offset="0.29" style="stop-color:rgb(253,185,49);stop-opacity:1"/><stop offset="0.47" style="stop-color:rgb(200,154,56);stop-opacity:1"/><stop offset="0.66" style="stop-color:rgb(232,198,51);stop-opacity:1"/><stop offset="1" style="stop-color:rgb(253,185,49);stop-opacity:1"/></radialGradient>
        <radialGradient id="_Radial2" cx="0" cy="0" r="1" gradientUnits="userSpaceOnUse" gradientTransform="matrix(-126.219,425.248,-605.96,-179.856,490.04,279.96)"><stop offset="0" style="stop-color:rgb(254,219,55);stop-opacity:1"/><stop offset="0.29" style="stop-color:rgb(253,185,49);stop-opacity:1"/><stop offset="0.47" style="stop-color:rgb(200,154,56);stop-opacity:1"/><stop offset="0.66" style="stop-color:rgb(232,198,51);stop-opacity:1"/><stop offset="1" style="stop-color:rgb(253,185,49);stop-opacity:1"/></radialGradient>
    </defs>
</svg>
