<svg xmlns="http://www.w3.org/2000/svg" width="76.003" height="66.235" viewBox="0 0 76.003 66.235">
  <path id="headphone_1_" data-name="headphone (1)" d="M79.71,58.26H79.1V57.118a1.186,1.186,0,0,0-1.226-1.142H75.419V51.408c-.008-10.019-5.879-19.237-15.313-24.046h0a31.276,31.276,0,0,0-28.282.039h0C22.433,32.224,16.6,41.419,16.586,51.409v4.568H14.129A1.186,1.186,0,0,0,12.9,57.118V58.26h-.61a4.156,4.156,0,0,0-4.29,4v7.994a4.156,4.156,0,0,0,4.29,4h.61V75.39a1.186,1.186,0,0,0,1.226,1.142H17.8V81.1a7.124,7.124,0,0,0,7.355,6.852h14.71v1.142A1.186,1.186,0,0,0,41.1,90.236h9.8a1.186,1.186,0,0,0,1.226-1.142V84.526A1.186,1.186,0,0,0,50.9,83.384H41.1a1.186,1.186,0,0,0-1.226,1.142v1.142H25.161a4.749,4.749,0,0,1-4.9-4.568V76.532h4.9a1.186,1.186,0,0,0,1.226-1.142V57.118a1.186,1.186,0,0,0-1.226-1.142H22.71V51.408A21.129,21.129,0,0,1,32.087,34.02l.319,1.953a1.16,1.16,0,0,0,.744.884,1.3,1.3,0,0,0,1.2-.138,20.741,20.741,0,0,1,23.3,0,1.3,1.3,0,0,0,1.2.136,1.158,1.158,0,0,0,.741-.892L59.89,34a21.132,21.132,0,0,1,9.4,17.405v4.568H66.839a1.186,1.186,0,0,0-1.226,1.142V75.39a1.186,1.186,0,0,0,1.226,1.142H77.871A1.186,1.186,0,0,0,79.1,75.39V74.248h.613a4.156,4.156,0,0,0,4.29-4V62.257a4.156,4.156,0,0,0-4.293-4ZM12.9,71.964h-.61a1.781,1.781,0,0,1-1.839-1.713V62.257a1.781,1.781,0,0,1,1.839-1.713h.61Zm29.419,13.7h7.355v2.284H42.323ZM23.935,58.26V74.248h-8.58V58.26Zm-.349-18.636a22.686,22.686,0,0,0-3.328,11.784v4.568H19.032V51.408A24.792,24.792,0,0,1,31.474,30.25l.2,1.242a24.979,24.979,0,0,0-8.09,8.132Zm33.852-5.79a23.433,23.433,0,0,0-22.9.011l-.32-1.971V31.86l-.461-2.832A28.7,28.7,0,0,1,58.18,29ZM68.4,39.6a24.992,24.992,0,0,0-8.124-8.144l.192-1.246a24.781,24.781,0,0,1,12.5,21.193v4.568H71.742V51.408a22.7,22.7,0,0,0-3.338-11.8Zm8.242,34.642H68.065V58.26h8.581Zm4.9-4A1.781,1.781,0,0,1,79.7,71.96h-.6V60.544h.613a1.781,1.781,0,0,1,1.839,1.713Z" transform="translate(-8 -24.002)" fill="#16a1e6"/>
</svg>
